<svg xmlns="http://www.w3.org/2000/svg" width="784.53" height="89.492" viewBox="0 0 784.53 89.492">
  <g id="Group_108" data-name="Group 108" transform="translate(-117 -581.628)">
    <path id="Path_20" data-name="Path 20" d="M11.178,14.318H3.22V45h7.958V31.706L21.574,45h10.3L18.584,28.854l12.19-14.536H20.93l-9.752,12.65ZM55.2,45h8.51L52.164,14.318H43.47L31.694,45h8.418l2.07-5.152H53.314ZM44.39,33.776l3.358-9.936,3.45,9.936ZM66.424,14.318V45h7.958V33.224L82.018,45h9.89L82.294,32.442a8.6,8.6,0,0,0,4.232-2.116,8.854,8.854,0,0,0,2.438-6.394,10.1,10.1,0,0,0-2.622-6.9,9.913,9.913,0,0,0-7.5-2.714Zm7.958,6.164H75.9a5.4,5.4,0,0,1,3.818,1.2,3.618,3.618,0,0,1,1.058,2.576,3.82,3.82,0,0,1-1.012,2.576A5.98,5.98,0,0,1,75.9,28.072H74.382Zm37.03.6V14.318H90.39V21.08h6.532V45h7.958V21.08ZM133.354,45h8.51L130.318,14.318h-8.694L109.848,45h8.418l2.07-5.152h11.132Zm-10.81-11.224L125.9,23.84l3.45,9.936Zm30.544,8.464a21.421,21.421,0,0,0,4.646,2.438,16.4,16.4,0,0,0,6.026,1.012c3.266,0,6.44-.506,9.062-3.128a10.394,10.394,0,0,0,2.9-7.728,7.244,7.244,0,0,0-1.978-5.474,11.721,11.721,0,0,0-5.566-3.036l-2.438-.736a5.037,5.037,0,0,1-2.668-1.38,2.052,2.052,0,0,1-.414-1.38,2.271,2.271,0,0,1,.782-1.656,3.821,3.821,0,0,1,2.622-.92,8.094,8.094,0,0,1,5.244,2.07l3.174-6.21A21.552,21.552,0,0,0,165,13.628a10.818,10.818,0,0,0-7.866,2.9,10.032,10.032,0,0,0-2.806,7.406,7.72,7.72,0,0,0,1.748,5.428,10.021,10.021,0,0,0,4.416,2.484l2.07.644c1.978.6,3.174.92,3.956,1.61a2.4,2.4,0,0,1,.874,1.84,2.744,2.744,0,0,1-.782,1.932,4.038,4.038,0,0,1-3.082,1.058,10.749,10.749,0,0,1-7.038-3.128Zm34.776-27.922h-7.958V45h7.958V32.58h11.5V45h8V14.318h-8V25.772h-11.5Zm42.55,0H212.98V45h17.434V38.238h-9.476v-5.29h8.97V26.186h-8.97V21.08h9.476Zm4.232,0V45h17.526V38.238H242.6V14.318Zm20.792,0V45h17.526V38.238H263.4V14.318ZM297.252,45a16.663,16.663,0,0,0,11.776-4.646c2.99-2.99,4-6.578,4-10.626a14.978,14.978,0,0,0-4.278-11.178c-3.956-3.818-9.108-4.232-12.19-4.232H286.12V45Zm-3.174-23.92h1.932c1.978,0,4.462.184,6.348,1.932a9.172,9.172,0,0,1,2.392,6.716,8.359,8.359,0,0,1-2.346,6.3c-2.07,2.024-4.784,2.208-6.716,2.208h-1.61Zm23.184-6.762V45h17.526V38.238H325.22V14.318ZM358.662,45h8.51L355.626,14.318h-8.694L335.156,45h8.418l2.07-5.152h11.132Zm-10.81-11.224,3.358-9.936,3.45,9.936ZM397.9,21.08V14.318H376.878V21.08h6.532V45h7.958V21.08Zm-.506-6.762L406.548,45h8.1l5.888-17.756L426.1,45h8.142l9.8-30.682h-8.326l-5.8,19.826L423.89,14.318h-6.348l-6.486,19.826L405.72,14.318Zm81.512,15.364a15.872,15.872,0,0,0-4.83-11.5,18.347,18.347,0,0,0-24.2,0,16.051,16.051,0,0,0,0,22.954,18.347,18.347,0,0,0,24.2,0A15.921,15.921,0,0,0,478.906,29.682Zm-16.928-8.326a9.184,9.184,0,0,1,6.164,2.438,8.279,8.279,0,0,1,2.484,5.888,8.334,8.334,0,0,1-8.648,8.28,8.7,8.7,0,0,1-6.21-2.438,7.8,7.8,0,0,1-2.438-5.7,8.411,8.411,0,0,1,2.438-6.026A8.837,8.837,0,0,1,461.978,21.356Zm26.542-7.038v20.93c0,.92-.138,2.438-.828,3.082a2.29,2.29,0,0,1-1.38.506,2.789,2.789,0,0,1-1.518-.552,4.283,4.283,0,0,1-1.1-2.438l-5.2,5.336a10.978,10.978,0,0,0,3.036,3.128,8.107,8.107,0,0,0,4.83,1.38,9.912,9.912,0,0,0,7.5-2.9c2.392-2.392,2.622-4.508,2.622-7.36V14.318Zm31,0H502.09V45h17.434V38.238h-9.476v-5.29h8.97V26.186h-8.97V21.08h9.476Zm18.952,19.5h6.532a5.458,5.458,0,0,1-1.886,3.4,6.571,6.571,0,0,1-4.416,1.426,7.258,7.258,0,0,1-5.612-2.346,9.6,9.6,0,0,1-2.438-6.624,10.348,10.348,0,0,1,2.668-7.038,7.411,7.411,0,0,1,5.244-2.116,6.433,6.433,0,0,1,4.278,1.518,7.508,7.508,0,0,1,2.208,3.082L552.644,22a15.033,15.033,0,0,0-5.474-6.3,17.837,17.837,0,0,0-20.194,2.438,15.987,15.987,0,0,0-4.6,11.5,15.462,15.462,0,0,0,4.416,11.086c2.484,2.53,6.256,4.554,11.776,4.554,3.91,0,7.59-.874,10.81-3.864,3.68-3.4,4.922-7.728,4.922-13.8H538.476Zm52.532-4.14a15.872,15.872,0,0,0-4.83-11.5,18.347,18.347,0,0,0-24.2,0,16.051,16.051,0,0,0,0,22.954,18.347,18.347,0,0,0,24.2,0A15.921,15.921,0,0,0,591.008,29.682ZM574.08,21.356a9.184,9.184,0,0,1,6.164,2.438,8.279,8.279,0,0,1,2.484,5.888,8.334,8.334,0,0,1-8.648,8.28,8.7,8.7,0,0,1-6.21-2.438,7.8,7.8,0,0,1-2.438-5.7,8.411,8.411,0,0,1,2.438-6.026A8.837,8.837,0,0,1,574.08,21.356ZM617.918,45c3.772,0,6.67-1.2,8.326-2.9a8.327,8.327,0,0,0,2.254-6.026,7.718,7.718,0,0,0-2.07-5.612,7.629,7.629,0,0,0-4.186-1.84,4.831,4.831,0,0,0,2.484-2.392,7.952,7.952,0,0,0,.874-3.772,8.3,8.3,0,0,0-1.886-5.75c-1.886-2.07-4.508-2.392-6.716-2.392H605.13V45Zm-4.83-24.564h1.472a4.224,4.224,0,0,1,3.036.92,3.154,3.154,0,0,1,.736,2.07,2.972,2.972,0,0,1-.736,2.024,4.2,4.2,0,0,1-3.036.966h-1.472Zm0,11.914h1.656c1.978,0,3.956.046,4.922,1.012a3.118,3.118,0,0,1,.782,2.208,2.984,2.984,0,0,1-.644,1.978c-.874,1.012-2.714,1.242-4.922,1.242h-1.794ZM632.73,14.318V45h7.958V14.318Zm38.778,0H646.162V21.08h12.052L643.678,45h26.266V38.238h-12.88ZM682.456,45V26.232L697.13,45h7.958V14.318H697.13V33.086L682.456,14.318H674.5V45Zm45.678-30.682H710.7V45h17.434V38.238h-9.476v-5.29h8.97V26.186h-8.97V21.08h9.476Zm2.852,27.922a21.419,21.419,0,0,0,4.646,2.438,16.4,16.4,0,0,0,6.026,1.012c3.266,0,6.44-.506,9.062-3.128a10.394,10.394,0,0,0,2.9-7.728,7.244,7.244,0,0,0-1.978-5.474,11.721,11.721,0,0,0-5.566-3.036l-2.438-.736a5.037,5.037,0,0,1-2.668-1.38,2.052,2.052,0,0,1-.414-1.38,2.271,2.271,0,0,1,.782-1.656,3.821,3.821,0,0,1,2.622-.92,8.094,8.094,0,0,1,5.244,2.07l3.174-6.21a21.552,21.552,0,0,0-9.476-2.484,10.818,10.818,0,0,0-7.866,2.9,10.032,10.032,0,0,0-2.806,7.406,7.72,7.72,0,0,0,1.748,5.428,10.021,10.021,0,0,0,4.416,2.484l2.07.644c1.978.6,3.174.92,3.956,1.61a2.4,2.4,0,0,1,.874,1.84,2.744,2.744,0,0,1-.782,1.932,4.038,4.038,0,0,1-3.082,1.058A10.749,10.749,0,0,1,734.39,35.8ZM757.8,14.318V31.936c0,3.266.322,7.176,2.99,10.074,1.886,2.024,5.336,3.68,10.166,3.68,4.324,0,7.544-1.2,10.12-3.818,3.312-3.358,3.45-6.716,3.45-9.936V14.318h-7.958V31.8c0,1.7.046,3.956-1.794,5.566a5.653,5.653,0,0,1-7.452-.138,6.2,6.2,0,0,1-1.564-4.738V14.318Z" transform="translate(117 568)" fill="#404040"/>
    <path id="Path_19" data-name="Path 19" d="M3.96,13.652v13.42L0,29.624V31.56l3.96-2.552V43H14.08V41.24H5.9V27.952l4.4-2.816V23.2L5.9,26.016V13.652Zm27.632,14.52a8.194,8.194,0,0,0-7-3.52c-5.236,0-8.756,3.828-8.756,9.372,0,5.9,4.048,9.46,8.756,9.46a8.2,8.2,0,0,0,7-3.7V43h1.76V25.048h-1.76Zm-6.908-1.848c3.08,0,7,2.244,7,7.568,0,4.136-2.464,7.92-6.952,7.92-4.532,0-7.04-3.872-7.04-7.92C17.688,29.008,21.12,26.324,24.684,26.324Zm20.02.4V25.048H41.58V18.624H39.82v6.424H37.84V26.72h1.98V43h1.76V26.72Zm1.584-1.672L54.428,44.1l6.2-15.928,6.2,15.928,8.316-19.052H73.216l-6.38,14.828-6.2-15.928-6.2,15.928-6.2-14.828Zm32.384,0V43h1.76V25.048Zm.88-4.356a1.629,1.629,0,1,0-1.584-1.628A1.561,1.561,0,0,0,79.552,20.692Zm23.276,13.552c0-5.72-3.652-9.592-8.492-9.592-4.4,0-8.712,3.212-8.712,9.46,0,5.236,3.256,9.372,8.844,9.372a8.675,8.675,0,0,0,7.876-4.884l-1.5-.88A6.851,6.851,0,0,1,94.6,41.812a7.207,7.207,0,0,1-7.128-7.568ZM87.6,32.572a6.861,6.861,0,0,1,6.732-6.248,6.741,6.741,0,0,1,6.644,6.248Zm20.416-7.524V53.12h1.76V25.048Zm.88-4.356a1.629,1.629,0,1,0-1.584-1.628A1.561,1.561,0,0,0,108.9,20.692Zm16.368,6.864a4.835,4.835,0,0,0-4.708-2.9,4.555,4.555,0,0,0-4.8,4.62,3.768,3.768,0,0,0,.792,2.332c.792,1.056,2.112,1.628,3.916,2.376,2.728,1.1,4,1.848,4,3.872a3.848,3.848,0,0,1-4,3.96,4.582,4.582,0,0,1-4.488-3.608l-1.716.528a6.144,6.144,0,0,0,6.2,4.752c2.772,0,5.852-1.628,5.852-5.72a4.32,4.32,0,0,0-.924-2.9c-1.144-1.452-2.816-1.936-4.62-2.64-1.76-.7-3.168-1.276-3.168-3.036a2.892,2.892,0,0,1,3.036-2.86,3.282,3.282,0,0,1,3.124,2.024Zm21.472-2.508H130.724V26.72h12.408L128.436,43h18.216V41.328H132.22Zm19.58,9.2c0-5.72-3.652-9.592-8.492-9.592-4.4,0-8.712,3.212-8.712,9.46,0,5.236,3.256,9.372,8.844,9.372a8.675,8.675,0,0,0,7.876-4.884l-1.5-.88a6.851,6.851,0,0,1-6.248,4.092,7.207,7.207,0,0,1-7.128-7.568ZM151.1,32.572a6.861,6.861,0,0,1,6.732-6.248,6.741,6.741,0,0,1,6.644,6.248Zm32.428,7.216a7.811,7.811,0,0,0,6.952,3.7c5.456,0,8.8-4.312,8.8-9.592,0-5.192-3.3-9.24-8.712-9.24a8.437,8.437,0,0,0-7.04,3.52V25.048h-1.76V53.12h1.76Zm6.908,2.024c-4.532,0-7-3.52-7-8.008,0-4.972,3.52-7.48,7.04-7.48,3.7,0,6.952,2.64,6.952,7.568C197.428,38.292,194.964,41.812,190.432,41.812Zm22.308-17.16a9.416,9.416,0,1,0,9.416,9.416A9.262,9.262,0,0,0,212.74,24.652Zm0,17.16a7.526,7.526,0,0,1-7.568-7.744,7.57,7.57,0,1,1,15.136,0A7.526,7.526,0,0,1,212.74,41.812Zm29.216-13.64A8.127,8.127,0,0,0,235,24.652c-4.356,0-8.8,2.728-8.8,9.284,0,6.292,4.268,9.548,8.8,9.548a8.18,8.18,0,0,0,6.952-3.7V43h1.76V10.924h-1.76ZM235,26.324c4.444,0,7.04,3.388,7.04,7.568,0,5.236-3.388,7.92-6.952,7.92-3.608,0-7.04-2.684-7.04-7.92C228.052,28.876,231.308,26.324,235,26.324ZM250.052,43h1.76V33.364c0-2.244.044-7.04,3.652-7.04a2.031,2.031,0,0,1,1.32.352l.88-1.584a4.17,4.17,0,0,0-1.892-.44,4.24,4.24,0,0,0-3.96,2.728V25.048h-1.76ZM268.84,24.652a9.416,9.416,0,1,0,9.416,9.416A9.262,9.262,0,0,0,268.84,24.652Zm0,17.16a7.526,7.526,0,0,1-7.568-7.744,7.57,7.57,0,1,1,15.136,0A7.526,7.526,0,0,1,268.84,41.812Zm1.98-26.092-4.048,6.028,1.32.7,4.62-5.632Zm27.192,9.328H282V26.72H294.4L279.708,43h18.216V41.328H283.492ZM287.76,19.812a1.716,1.716,0,1,0,1.716-1.716A1.64,1.64,0,0,0,287.76,19.812Zm29.832,14.432c0-5.72-3.652-9.592-8.492-9.592-4.4,0-8.712,3.212-8.712,9.46,0,5.236,3.256,9.372,8.844,9.372a8.675,8.675,0,0,0,7.876-4.884l-1.5-.88a6.851,6.851,0,0,1-6.248,4.092,7.207,7.207,0,0,1-7.128-7.568Zm-15.224-1.672a6.861,6.861,0,0,1,6.732-6.248,6.741,6.741,0,0,1,6.644,6.248Zm39.82-5.016a4.835,4.835,0,0,0-4.708-2.9,4.555,4.555,0,0,0-4.8,4.62,3.768,3.768,0,0,0,.792,2.332c.792,1.056,2.112,1.628,3.916,2.376,2.728,1.1,4,1.848,4,3.872a3.848,3.848,0,0,1-4,3.96A4.582,4.582,0,0,1,332.9,38.2l-1.716.528a6.144,6.144,0,0,0,6.2,4.752c2.772,0,5.852-1.628,5.852-5.72a4.32,4.32,0,0,0-.924-2.9c-1.144-1.452-2.816-1.936-4.62-2.64-1.76-.7-3.168-1.276-3.168-3.036a2.892,2.892,0,0,1,3.036-2.86,3.282,3.282,0,0,1,3.124,2.024Zm5.544-16.632V22.936L344.564,25.4v1.936l3.168-2.464V43h1.76V23.816l3.168-2.464V19.416l-3.168,2.464V10.924Zm8.1,14.124V36.356a7.748,7.748,0,0,0,1.364,4.928,7.021,7.021,0,0,0,10.208,0,7.748,7.748,0,0,0,1.364-4.928V25.048H367V35.872c0,1.276-.044,3.168-1.144,4.488a5.1,5.1,0,0,1-7.128,0c-1.1-1.32-1.144-3.212-1.144-4.488V25.048Zm33.88,0H373.692V26.72H386.1L371.4,43H389.62V41.328H375.188Zm-10.252-5.236a1.716,1.716,0,1,0,1.716-1.716A1.64,1.64,0,0,0,379.456,19.812Zm14.212-8.888V43h1.76V39.788a7.811,7.811,0,0,0,6.952,3.7c5.456,0,8.8-4.312,8.8-9.592,0-5.192-3.3-9.24-8.712-9.24a8.437,8.437,0,0,0-7.04,3.52V10.924Zm8.668,30.888c-4.532,0-7-3.52-7-8.008,0-4.972,3.52-7.48,7.04-7.48,3.7,0,6.952,2.64,6.952,7.568C409.332,38.292,406.868,41.812,402.336,41.812Zm22.308-17.16a9.416,9.416,0,1,0,9.416,9.416A9.262,9.262,0,0,0,424.644,24.652Zm0,17.16a7.526,7.526,0,0,1-7.568-7.744,7.57,7.57,0,1,1,15.136,0A7.526,7.526,0,0,1,424.644,41.812Zm11.792-16.764,8.14,19.052,6.2-15.928,6.2,15.928L465.3,25.048h-1.936l-6.38,14.828-6.2-15.928-6.2,15.928-6.2-14.828Zm48.444,9.2c0-5.72-3.652-9.592-8.492-9.592-4.4,0-8.712,3.212-8.712,9.46,0,5.236,3.256,9.372,8.844,9.372A8.675,8.675,0,0,0,484.4,38.6l-1.5-.88a6.851,6.851,0,0,1-6.248,4.092,7.207,7.207,0,0,1-7.128-7.568Zm-15.224-1.672a6.861,6.861,0,0,1,6.732-6.248,6.741,6.741,0,0,1,6.644,6.248Zm23.936,5.192V13.652h-1.936V37.764ZM491,41.68a1.628,1.628,0,1,0,1.628-1.628A1.6,1.6,0,0,0,491,41.68Z" transform="translate(117 618)" fill="#404040"/>
  </g>
</svg>
