<svg xmlns="http://www.w3.org/2000/svg" width="385.684" height="46.098" viewBox="0 0 385.684 46.098">
  <g id="Group_112" data-name="Group 112" transform="translate(-569 -1672.962)">
    <rect id="Rectangle_9" data-name="Rectangle 9" width="16" height="16" rx="3" transform="translate(569 1673)" fill="#ffc717"/>
    <path id="Path_18" data-name="Path 18" d="M.176,7.326,5.808,22.77l4.62-11.748L14.74,22.77,20.9,7.326H19.1l-4.29,11L10.45,6.578l-4.6,11.748-3.872-11ZM21.538,27.06H23.3l6.71-14.19h-1.76L25.278,19.4,22.044,12.87h-1.8l4.2,8.272ZM36.52,14.3a2.633,2.633,0,0,0-2.508-1.65A2.454,2.454,0,0,0,31.35,15.2a1.983,1.983,0,0,0,.418,1.342,5.955,5.955,0,0,0,2.222,1.342c.858.374,1.474.66,1.474,1.518a1.417,1.417,0,0,1-1.5,1.452,2.066,2.066,0,0,1-1.848-1.5l-1.364.572a3.265,3.265,0,0,0,3.19,2.332,2.9,2.9,0,0,0,3.146-2.992,2.161,2.161,0,0,0-.484-1.474A5.551,5.551,0,0,0,34.32,16.39c-1.034-.44-1.474-.638-1.474-1.3a1.009,1.009,0,0,1,1.1-1.034,1.4,1.4,0,0,1,1.276.924Zm6.952,7.964a4.683,4.683,0,0,0,4.84-4.8,4.84,4.84,0,0,0-9.68,0A4.683,4.683,0,0,0,43.472,22.264Zm0-8.206a3.16,3.16,0,0,1,3.212,3.41,3.217,3.217,0,1,1-6.424,0A3.173,3.173,0,0,1,43.472,14.058Zm7.26-8.1V22h1.584V18.238l.4-.4L56.364,22h2.068l-4.62-5.214,3.916-3.916H55.66l-3.344,3.388V5.962Zm16.28,8.206a3.777,3.777,0,0,0-3.124-1.518c-2.332,0-4.444,1.628-4.444,4.774,0,3.212,2.134,4.84,4.444,4.84a3.851,3.851,0,0,0,3.124-1.54V22H68.6V12.87H67.012Zm-2.948-.11A3.092,3.092,0,0,1,67.1,17.446a3.122,3.122,0,0,1-3.036,3.41c-1.892,0-2.992-1.474-2.992-3.432A3.034,3.034,0,0,1,64.064,14.058Zm12.65-1.188V27.06H78.3V12.87Zm-.33-3.454a1.122,1.122,0,1,0,1.122-1.122A1.127,1.127,0,0,0,76.384,9.416Zm11.9,4.752a3.777,3.777,0,0,0-3.124-1.518c-2.332,0-4.444,1.628-4.444,4.774,0,3.212,2.134,4.84,4.444,4.84a3.851,3.851,0,0,0,3.124-1.54V22H89.87V12.87H88.286Zm-2.948-.11a3.092,3.092,0,0,1,3.036,3.388,3.122,3.122,0,0,1-3.036,3.41c-1.892,0-2.992-1.474-2.992-3.432A3.034,3.034,0,0,1,85.338,14.058Zm7.524-8.1V22h1.584V18.238l.4-.4L98.494,22h2.068l-4.62-5.214,3.916-3.916H97.79l-3.344,3.388V5.962Zm13.222,16.3a4.683,4.683,0,0,0,4.84-4.8,4.84,4.84,0,0,0-9.68,0A4.683,4.683,0,0,0,106.084,22.264Zm0-8.206a3.16,3.16,0,0,1,3.212,3.41,3.217,3.217,0,1,1-6.424,0A3.173,3.173,0,0,1,106.084,14.058Zm12.32.242a2.633,2.633,0,0,0-2.508-1.65,2.454,2.454,0,0,0-2.662,2.552,1.983,1.983,0,0,0,.418,1.342,5.955,5.955,0,0,0,2.222,1.342c.858.374,1.474.66,1.474,1.518a1.417,1.417,0,0,1-1.5,1.452A2.066,2.066,0,0,1,114,19.36l-1.364.572a3.265,3.265,0,0,0,3.19,2.332,2.9,2.9,0,0,0,3.146-2.992,2.161,2.161,0,0,0-.484-1.474A5.551,5.551,0,0,0,116.2,16.39c-1.034-.44-1.474-.638-1.474-1.3a1.009,1.009,0,0,1,1.1-1.034,1.4,1.4,0,0,1,1.276.924Zm-1.32-6.952-2.31,3.19.99.528,2.948-2.97Zm11.154,6.182a4.836,4.836,0,0,0-2.838-.88,4.717,4.717,0,0,0-4.884,4.84,4.676,4.676,0,0,0,4.884,4.774,4.876,4.876,0,0,0,2.9-.946V19.426a3.892,3.892,0,0,1-2.948,1.43,3.177,3.177,0,0,1-3.212-3.388,3.177,3.177,0,0,1,3.234-3.41,3.683,3.683,0,0,1,2.86,1.364Zm-2.222-6.182-2.31,3.19.99.528,2.948-2.97Zm11.418,13.376a3.876,3.876,0,0,0,3.19,1.54C143.4,22.264,145,20,145,17.49c0-2.464-1.584-4.84-4.444-4.84a3.926,3.926,0,0,0-3.124,1.5V12.87H135.85V27.06h1.584Zm2.97.132a3.123,3.123,0,0,1-3.058-3.388,3.169,3.169,0,0,1,3.036-3.41,3.131,3.131,0,0,1,2.992,3.432A3.075,3.075,0,0,1,140.4,20.856ZM147.422,22h1.584V17.182a3.939,3.939,0,0,1,.528-2.464,1.533,1.533,0,0,1,1.276-.572,1.63,1.63,0,0,1,.924.308l.748-1.43a3.346,3.346,0,0,0-1.408-.374,2.537,2.537,0,0,0-2.068,1.21v-.99h-1.584Zm10.252.264a4.683,4.683,0,0,0,4.84-4.8,4.84,4.84,0,0,0-9.68,0A4.683,4.683,0,0,0,157.674,22.264Zm0-8.206a3.16,3.16,0,0,1,3.212,3.41,3.217,3.217,0,1,1-6.424,0A3.173,3.173,0,0,1,157.674,14.058Zm14.256.11a3.777,3.777,0,0,0-3.124-1.518c-2.332,0-4.444,1.628-4.444,4.774,0,3.212,2.134,4.84,4.444,4.84a3.851,3.851,0,0,0,3.124-1.54V22h1.584V5.962H171.93Zm-2.948-.11a3.092,3.092,0,0,1,3.036,3.388,3.122,3.122,0,0,1-3.036,3.41c-1.892,0-2.992-1.474-2.992-3.432A3.034,3.034,0,0,1,168.982,14.058Zm9.108-1.188h-1.584v5.5a3.629,3.629,0,0,0,.836,2.75,3.984,3.984,0,0,0,5.588,0,3.629,3.629,0,0,0,.836-2.75v-5.5h-1.584v5.324a3.108,3.108,0,0,1-.44,1.958,2.184,2.184,0,0,1-3.212,0,3.108,3.108,0,0,1-.44-1.958Zm8.668-6.908V22h1.584V18.238l.4-.4L192.39,22h2.068l-4.62-5.214,3.916-3.916h-2.068l-3.344,3.388V5.962Zm12.5,8.36V12.87H197.67V9.57h-1.584v3.3h-.968v1.452h.968V22h1.584V14.322Zm5.764,7.942a4.683,4.683,0,0,0,4.84-4.8,4.84,4.84,0,0,0-9.68,0A4.683,4.683,0,0,0,205.018,22.264Zm0-8.206a3.16,3.16,0,0,1,3.212,3.41,3.217,3.217,0,1,1-6.424,0A3.173,3.173,0,0,1,205.018,14.058Zm1.364-6.71-2.31,3.19.99.528L208.01,8.1Zm4.576,5.522,4.488,9.768,2.816-6.82,2.816,6.82,4.532-9.768h-1.76l-2.728,6.2-2.838-6.908-2.86,6.908-2.706-6.2Zm29.7-3.5a4.438,4.438,0,0,0-1.43-1.628,3.975,3.975,0,0,0-2.354-.66,3.791,3.791,0,0,0-4.114,3.784,3.047,3.047,0,0,0,1.012,2.4,6.5,6.5,0,0,0,1.958,1.21l1.32.616a6.4,6.4,0,0,1,1.76,1.012,2.189,2.189,0,0,1,.726,1.716,3,3,0,0,1-5.06,2.09,3.463,3.463,0,0,1-.88-1.87l-1.584.44a5.319,5.319,0,0,0,1.364,2.6,4.709,4.709,0,0,0,7.832-3.322,3.531,3.531,0,0,0-1.056-2.662,7.128,7.128,0,0,0-2.266-1.386l-1.408-.616a4.792,4.792,0,0,1-1.54-.924,1.539,1.539,0,0,1-.55-1.276,2.251,2.251,0,0,1,2.464-2.266,2.64,2.64,0,0,1,1.65.506,3.536,3.536,0,0,1,.858,1.1ZM243.8,22h1.584V17.226a3.846,3.846,0,0,1,.66-2.464,2,2,0,0,1,1.606-.7,1.792,1.792,0,0,1,1.5.66,2.684,2.684,0,0,1,.418,1.672V22h1.584V16.346a4.072,4.072,0,0,0-.528-2.442,3.1,3.1,0,0,0-2.618-1.254,3.221,3.221,0,0,0-2.618,1.276V5.962H243.8Zm16.9-3.058a3.637,3.637,0,0,1-.946,1.254,2.776,2.776,0,0,1-1.87.66,2.924,2.924,0,0,1-2.9-3.1h7.106a6.13,6.13,0,0,0-.858-3.432,4.085,4.085,0,0,0-3.454-1.672c-2.75,0-4.422,2.112-4.422,4.84,0,3.388,2.31,4.774,4.51,4.774a4.432,4.432,0,0,0,3.036-1.122,5.462,5.462,0,0,0,1.122-1.474Zm-5.61-2.508a2.775,2.775,0,0,1,2.684-2.376,2.732,2.732,0,0,1,2.684,2.376Zm9.416-10.472V22h1.584V5.962Zm4.576,0V22h1.584V5.962Zm18.15,6.908H278.74v1.452h5.324L277.464,22h9.5V20.548h-6.336Zm.352,0,4.488,9.768,2.816-6.82,2.816,6.82,4.532-9.768h-1.76l-2.728,6.2-2.838-6.908-2.86,6.908-2.706-6.2Zm16.324,0V22h1.584V12.87Zm-.33-3.454A1.122,1.122,0,1,0,304.7,8.294,1.127,1.127,0,0,0,303.578,9.416Zm11.7,9.526a4.017,4.017,0,0,1-.946,1.254,2.866,2.866,0,0,1-1.87.66,2.836,2.836,0,0,1-2.046-.814,3.61,3.61,0,0,1-.88-2.288h7.128a5.71,5.71,0,0,0-1.254-3.916,4.558,4.558,0,0,0-6.138,0,5.129,5.129,0,0,0-1.364,3.652,4.743,4.743,0,0,0,1.342,3.564,4.392,4.392,0,0,0,3.08,1.21,3.748,3.748,0,0,0-.77.792,1.976,1.976,0,0,0-.4,1.188,1.666,1.666,0,0,0,.506,1.254,2.287,2.287,0,0,0,1.606.594,2.541,2.541,0,0,0,1.232-.308l.176-1.21a2.164,2.164,0,0,1-1.056.286,1.343,1.343,0,0,1-.9-.286.823.823,0,0,1-.242-.594,1.627,1.627,0,0,1,.506-1.1,5.208,5.208,0,0,1,1.122-.836,6.79,6.79,0,0,0,1.364-.924,4.113,4.113,0,0,0,1.122-1.452Zm-5.61-2.508a3.391,3.391,0,0,1,.814-1.606,2.564,2.564,0,0,1,1.87-.77,2.643,2.643,0,0,1,1.848.748,2.833,2.833,0,0,1,.836,1.628Zm9.416-10.472V22h1.584V18.238l.4-.4L324.72,22h2.068l-4.62-5.214,3.916-3.916h-2.068l-3.344,3.388V5.962ZM333.432,14.3a2.633,2.633,0,0,0-2.508-1.65,2.454,2.454,0,0,0-2.662,2.552,1.983,1.983,0,0,0,.418,1.342,5.956,5.956,0,0,0,2.222,1.342c.858.374,1.474.66,1.474,1.518a1.417,1.417,0,0,1-1.5,1.452,2.066,2.066,0,0,1-1.848-1.5l-1.364.572a3.265,3.265,0,0,0,3.19,2.332A2.9,2.9,0,0,0,334,19.272a2.161,2.161,0,0,0-.484-1.474,5.551,5.551,0,0,0-2.288-1.408c-1.034-.44-1.474-.638-1.474-1.3a1.009,1.009,0,0,1,1.1-1.034,1.4,1.4,0,0,1,1.276.924Zm11.132-1.43h-8.492v1.452H341.4L334.8,22h9.5V20.548h-6.336Zm1.65,14.19h1.76l6.71-14.19h-1.76l-2.97,6.534L346.72,12.87h-1.8l4.2,8.272ZM9.944,37.87H1.452v1.452H6.776L.176,47h9.5V45.548H3.344Zm-5.61-3.036A1.166,1.166,0,1,0,5.5,33.668,1.146,1.146,0,0,0,4.334,34.834Zm7.26,17.226h1.76l6.71-14.19H18.3L15.334,44.4,12.1,37.87H10.3l4.2,8.272Zm8.822-14.19L24.9,47.638l2.816-6.82,2.816,6.82,4.532-9.768h-1.76l-2.728,6.2-2.838-6.908-2.86,6.908-2.706-6.2Zm20.592,9.394a4.807,4.807,0,1,0-4.84-4.8A4.683,4.683,0,0,0,41.008,47.264Zm0-8.206a3.16,3.16,0,0,1,3.212,3.41,3.217,3.217,0,1,1-6.424,0A3.173,3.173,0,0,1,41.008,39.058Zm10.472.264V37.87H49.9v-3.3H48.312v3.3h-.968v1.452h.968V47H49.9V39.322ZM52.976,47H54.56V42.226a3.846,3.846,0,0,1,.66-2.464,2,2,0,0,1,1.606-.7,1.792,1.792,0,0,1,1.5.66,2.684,2.684,0,0,1,.418,1.672V47h1.584V41.346A4.072,4.072,0,0,0,59.8,38.9a3.1,3.1,0,0,0-2.618-1.254,3.221,3.221,0,0,0-2.618,1.276V37.87H52.976Zm14.608.264a4.807,4.807,0,1,0-4.84-4.8A4.683,4.683,0,0,0,67.584,47.264Zm0-8.206a3.16,3.16,0,0,1,3.212,3.41,3.217,3.217,0,1,1-6.424,0A3.173,3.173,0,0,1,67.584,39.058ZM79.9,39.3A2.633,2.633,0,0,0,77.4,37.65,2.454,2.454,0,0,0,74.734,40.2a1.983,1.983,0,0,0,.418,1.342,5.955,5.955,0,0,0,2.222,1.342c.858.374,1.474.66,1.474,1.518a1.417,1.417,0,0,1-1.5,1.452,2.066,2.066,0,0,1-1.848-1.5l-1.364.572a3.265,3.265,0,0,0,3.19,2.332,2.9,2.9,0,0,0,3.146-2.992,2.161,2.161,0,0,0-.484-1.474A5.551,5.551,0,0,0,77.7,41.39c-1.034-.44-1.474-.638-1.474-1.3a1.009,1.009,0,0,1,1.1-1.034,1.4,1.4,0,0,1,1.276.924Zm-1.32-6.952-2.31,3.19.99.528,2.948-2.97ZM89.738,38.53a4.836,4.836,0,0,0-2.838-.88,4.808,4.808,0,1,0,0,9.614,4.876,4.876,0,0,0,2.9-.946V44.426a3.892,3.892,0,0,1-2.948,1.43,3.177,3.177,0,0,1-3.212-3.388,3.177,3.177,0,0,1,3.234-3.41,3.683,3.683,0,0,1,2.86,1.364Zm-2.222-6.182-2.31,3.19.99.528,2.948-2.97Zm17.4,1.518v-1.54H96.162v1.54h3.564V47h1.628V33.866Zm-.748,4,4.488,9.768,2.816-6.82,2.816,6.82,4.532-9.768h-1.76l-2.728,6.2L111.5,37.166l-2.86,6.908-2.706-6.2Zm20.592,9.394a4.807,4.807,0,1,0-4.84-4.8A4.683,4.683,0,0,0,124.762,47.264Zm0-8.206a3.16,3.16,0,0,1,3.212,3.41,3.217,3.217,0,1,1-6.424,0A3.173,3.173,0,0,1,124.762,39.058Zm7.26-1.188V52.06h1.584V37.87Zm-.33-3.454a1.122,1.122,0,1,0,1.122-1.122A1.127,1.127,0,0,0,131.692,34.416Zm11.682,9.526a3.637,3.637,0,0,1-.946,1.254,2.776,2.776,0,0,1-1.87.66,2.924,2.924,0,0,1-2.9-3.1h7.106a6.13,6.13,0,0,0-.858-3.432,4.085,4.085,0,0,0-3.454-1.672c-2.75,0-4.422,2.112-4.422,4.84,0,3.388,2.31,4.774,4.51,4.774a4.432,4.432,0,0,0,3.036-1.122,5.462,5.462,0,0,0,1.122-1.474Zm-5.61-2.508a2.775,2.775,0,0,1,2.684-2.376,2.732,2.732,0,0,1,2.684,2.376Zm9.416-3.564V52.06h1.584V37.87Zm-.33-3.454a1.122,1.122,0,1,0,1.122-1.122A1.127,1.127,0,0,0,146.85,34.416Zm13.9,4.906V37.87H158.51V34.438a2.523,2.523,0,0,1,.308-1.43,2.286,2.286,0,0,1,3.3,0,2.766,2.766,0,0,1,.308,1.43V47h1.584V34.438a4.342,4.342,0,0,0-.528-2.4,3.454,3.454,0,0,0-3.014-1.342,3.4,3.4,0,0,0-3.014,1.342,3.93,3.93,0,0,0-.528,2.4V37.87h-.88v1.452h.88V47h1.584V39.322Zm10.516,7.942a4.807,4.807,0,1,0-4.84-4.8A4.683,4.683,0,0,0,171.27,47.264Zm0-8.206a3.16,3.16,0,0,1,3.212,3.41,3.217,3.217,0,1,1-6.424,0A3.173,3.173,0,0,1,171.27,39.058Zm10.472.264V37.87h-1.584v-3.3h-1.584v3.3h-.968v1.452h.968V47h1.584V39.322Zm2.134,12.738h1.76l6.71-14.19h-1.76l-2.97,6.534-3.234-6.534h-1.8l4.2,8.272ZM204.2,39.3a2.633,2.633,0,0,0-2.508-1.65,2.454,2.454,0,0,0-2.662,2.552,1.983,1.983,0,0,0,.418,1.342,5.955,5.955,0,0,0,2.222,1.342c.858.374,1.474.66,1.474,1.518a1.417,1.417,0,0,1-1.5,1.452,2.066,2.066,0,0,1-1.848-1.5l-1.364.572a3.265,3.265,0,0,0,3.19,2.332,2.9,2.9,0,0,0,3.146-2.992,2.161,2.161,0,0,0-.484-1.474A5.551,5.551,0,0,0,202,41.39c-1.034-.44-1.474-.638-1.474-1.3a1.009,1.009,0,0,1,1.1-1.034,1.4,1.4,0,0,1,1.276.924Zm9.68-.132a3.777,3.777,0,0,0-3.124-1.518c-2.332,0-4.444,1.628-4.444,4.774,0,3.212,2.134,4.84,4.444,4.84a3.851,3.851,0,0,0,3.124-1.54V47h1.584V37.87h-1.584Zm-2.948-.11a3.092,3.092,0,0,1,3.036,3.388,3.122,3.122,0,0,1-3.036,3.41c-1.892,0-2.992-1.474-2.992-3.432A3.034,3.034,0,0,1,210.936,39.058ZM218.46,47h1.584V42.028c0-1.1.2-2.97,2-2.97,1.672,0,1.65,1.892,1.65,2.53V47h1.584V41.918c0-1.1.2-2.86,2.024-2.86,1.5,0,1.628,1.364,1.628,2.4V47h1.584V41.214c0-1.3-.264-3.564-2.97-3.564a3.048,3.048,0,0,0-2.75,1.474,2.734,2.734,0,0,0-2.486-1.474,2.652,2.652,0,0,0-2.266,1.188V37.87H218.46Zm19.338.264a4.807,4.807,0,1,0-4.84-4.8A4.683,4.683,0,0,0,237.8,47.264Zm0-8.206a3.16,3.16,0,0,1,3.212,3.41,3.217,3.217,0,1,1-6.424,0A3.173,3.173,0,0,1,237.8,39.058Zm14.41-.528a4.836,4.836,0,0,0-2.838-.88,4.808,4.808,0,1,0,0,9.614,4.876,4.876,0,0,0,2.9-.946V44.426a3.892,3.892,0,0,1-2.948,1.43,3.177,3.177,0,0,1-3.212-3.388,3.177,3.177,0,0,1,3.234-3.41,3.683,3.683,0,0,1,2.86,1.364ZM254.694,47h1.584V42.226a3.846,3.846,0,0,1,.66-2.464,2,2,0,0,1,1.606-.7,1.792,1.792,0,0,1,1.5.66,2.684,2.684,0,0,1,.418,1.672V47h1.584V41.346a4.072,4.072,0,0,0-.528-2.442A3.1,3.1,0,0,0,258.9,37.65a3.221,3.221,0,0,0-2.618,1.276V30.962h-1.584Zm14.278.264a4.807,4.807,0,1,0-4.84-4.8A4.683,4.683,0,0,0,268.972,47.264Zm0-8.206a3.16,3.16,0,0,1,3.212,3.41,3.217,3.217,0,1,1-6.424,0A3.173,3.173,0,0,1,268.972,39.058Zm14.256.11A3.777,3.777,0,0,0,280.1,37.65c-2.332,0-4.444,1.628-4.444,4.774,0,3.212,2.134,4.84,4.444,4.84a3.851,3.851,0,0,0,3.124-1.54V47h1.584V30.962h-1.584Zm-2.948-.11a3.092,3.092,0,0,1,3.036,3.388,3.122,3.122,0,0,1-3.036,3.41c-1.892,0-2.992-1.474-2.992-3.432A3.034,3.034,0,0,1,280.28,39.058Zm11.792,8.206a4.807,4.807,0,1,0-4.84-4.8A4.683,4.683,0,0,0,292.072,47.264Zm0-8.206a3.16,3.16,0,0,1,3.212,3.41,3.217,3.217,0,1,1-6.424,0A3.173,3.173,0,0,1,292.072,39.058Zm5.94-1.188,4.488,9.768,2.816-6.82,2.816,6.82,4.532-9.768H310.9l-2.728,6.2-2.838-6.908-2.86,6.908-2.706-6.2Zm23.1,6.072a3.637,3.637,0,0,1-.946,1.254,2.775,2.775,0,0,1-1.87.66,2.924,2.924,0,0,1-2.9-3.1H322.5a6.13,6.13,0,0,0-.858-3.432,4.085,4.085,0,0,0-3.454-1.672c-2.75,0-4.422,2.112-4.422,4.84,0,3.388,2.31,4.774,4.51,4.774a4.432,4.432,0,0,0,3.036-1.122,5.462,5.462,0,0,0,1.122-1.474Zm-5.61-2.508a2.775,2.775,0,0,1,2.684-2.376,2.732,2.732,0,0,1,2.684,2.376Zm9.416-3.564V52.06H326.5V37.87Zm-.33-3.454a1.122,1.122,0,1,0,1.122-1.122A1.127,1.127,0,0,0,324.588,34.416Z" transform="translate(600 1667)" fill="#404040"/>
  </g>
</svg>
