<svg width="48" height="32" viewBox="0 0 48 32" fill="none" xmlns="http://www.w3.org/2000/svg">
<path fill-rule="evenodd" clip-rule="evenodd" d="M20.8542 22.7503H16.9375L19.3854 8.25928H23.3025L20.8542 22.7503Z" fill="#1A1F71"/>
<path fill-rule="evenodd" clip-rule="evenodd" d="M13.6639 8.25928L9.92944 18.2259L9.48799 16.0797L9.48839 16.0804L8.17007 9.56442C8.17007 9.56442 8.01111 8.25928 6.3121 8.25928H0.139416L0.0673828 8.50426C0.0673828 8.50426 1.95553 8.88258 4.164 10.1614L7.56684 22.7503H11.6478L17.8792 8.25928H13.6639Z" fill="#1A1F71"/>
<path fill-rule="evenodd" clip-rule="evenodd" d="M39.1573 17.6243L41.2157 12.2011L42.3734 17.6243H39.1573ZM43.4672 22.7503H47.0636L43.928 8.25928H40.779C39.3247 8.25928 38.971 9.33921 38.971 9.33921L33.1299 22.7503H37.212L38.0289 20.5982H43.008L43.4672 22.7503Z" fill="#1A1F71"/>
<path fill-rule="evenodd" clip-rule="evenodd" d="M33.5123 11.7441L34.0709 8.63183C34.0709 8.63183 32.3461 8 30.5481 8C28.6044 8 23.9891 8.81867 23.9891 12.7973C23.9891 16.5414 29.4061 16.5879 29.4061 18.5535C29.4061 20.5192 24.5473 20.168 22.944 18.928L22.3613 22.1813C22.3613 22.1813 24.1098 23 26.7827 23C29.4551 23 33.4878 21.6662 33.4878 18.0388C33.4878 14.271 28.0217 13.9202 28.0217 12.2821C28.0217 10.644 31.8363 10.8545 33.5123 11.7441Z" fill="#1A1F71"/>
</svg>
