<svg width="32" height="32" viewBox="0 0 32 32" fill="none" xmlns="http://www.w3.org/2000/svg">
<path fill-rule="evenodd" clip-rule="evenodd" d="M0 6.85714C0 3.07005 3.07005 0 6.85714 0H25.1429C28.93 0 32 3.07005 32 6.85714V25.1429C32 28.93 28.93 32 25.1429 32H6.85714C3.07005 32 0 28.93 0 25.1429V6.85714Z" fill="url(#paint0_linear)"/>
<path fill-rule="evenodd" clip-rule="evenodd" d="M12.9539 18.6282H18.106C18.4943 18.7968 18.9305 19.135 19.1376 19.8163C19.2922 20.3276 19.1856 20.7828 19.0215 21.1295H6.58952C5.89866 21.1295 5.33887 20.5697 5.33887 19.8789C5.33887 19.188 5.89866 18.6282 6.58952 18.6282H10.0743L14.5297 10.8176L13.1319 8.36684C12.7898 7.76703 12.9989 7.00363 13.5987 6.66095C14.198 6.31977 14.9624 6.52838 15.3046 7.12819L15.9694 8.2933L16.6338 7.12819C16.976 6.52838 17.7399 6.31977 18.3397 6.66095C18.9395 7.00363 19.1486 7.76703 18.8064 8.36684L12.9539 18.6282ZM25.412 18.6281H21.8642L17.7676 11.4458C17.4264 11.7034 17.0528 12.0736 16.8451 12.5624C16.567 13.2152 16.515 13.8496 16.5345 14.3323L22.512 24.8128C22.7432 25.2175 23.1654 25.4441 23.5996 25.4441C23.8097 25.4441 24.0228 25.3916 24.2179 25.28C24.8182 24.9374 25.0268 24.174 24.6852 23.5741L23.2909 21.1294H25.412C26.1029 21.1294 26.6627 20.5696 26.6627 19.8787C26.6627 19.1878 26.1029 18.6281 25.412 18.6281ZM9.69482 21.4004C9.20005 21.3604 8.78682 21.4099 8.44163 21.4904L7.25348 23.574C6.91179 24.1738 7.1204 24.9372 7.72073 25.2799C7.91584 25.3915 8.12896 25.444 8.33907 25.444C8.77331 25.444 9.19605 25.2174 9.42667 24.8127L10.964 22.1173C10.6819 21.7751 10.2681 21.4469 9.69482 21.4004Z" fill="white"/>
<defs>
<linearGradient id="paint0_linear" x1="0" y1="0" x2="0" y2="32" gradientUnits="userSpaceOnUse">
<stop stop-color="#19C8FC"/>
<stop offset="1" stop-color="#1E72F4"/>
</linearGradient>
</defs>
</svg>
