<svg width="24" height="24" viewBox="0 0 24 24" fill="none" xmlns="http://www.w3.org/2000/svg">
<path d="M21.5117 12.8259C21.2504 12.3796 20.7855 12.1132 20.2682 12.1132H18.9638L18.0323 9.52197H5.96678L5.03528 12.1132H3.73075C3.21348 12.1132 2.74862 12.3796 2.48725 12.826C2.22587 13.2723 2.22086 13.8081 2.47384 14.2592L2.82353 14.8826V19.4642V21.0294V23.6088H7.29967V21.0294H16.6993V23.6088H21.1755V21.0294V19.4642V14.8826L21.5252 14.2592C21.7782 13.8081 21.7731 13.2723 21.5117 12.8259ZM7.0674 11.0872H16.9317L17.9414 13.8956H6.05772L7.0674 11.0872ZM3.94262 13.6784H4.4725L4.3944 13.8956H4.06445L3.94262 13.6784ZM4.38868 22.0437V21.0294H5.73442V22.0437H4.38868ZM16.6993 19.4642H7.29967H4.38868V15.4609H5.49498H18.504H19.6103V19.4642H16.6993ZM18.2645 22.0437V21.0294H19.6103V22.0437H18.2645ZM19.9345 13.8956H19.6046L19.5265 13.6784H20.0564L19.9345 13.8956Z" fill="#212E35"/>
<path d="M8.32339 16.5101H5.62939V18.0753H8.32339V16.5101Z" fill="#212E35"/>
<path d="M18.3703 16.5101H15.6763V18.0753H18.3703V16.5101Z" fill="#212E35"/>
<path d="M0 0.391113V23.6085H1.5652V1.95632H5.50134L7.09458 5.26007H16.9054L18.4986 1.95632H22.4347V23.6085H24V0.391113H0ZM15.9225 3.69486H8.0775L7.23914 1.95632H16.7609L15.9225 3.69486Z" fill="#212E35"/>
<path d="M12.7825 5.99438H11.2173V8.66673H12.7825V5.99438Z" fill="#212E35"/>
<path d="M8.86135 5.64813L7.93115 8.15332L9.39844 8.69813L10.3286 6.19295L8.86135 5.64813Z" fill="#212E35"/>
<path d="M15.1387 5.64975L13.6714 6.19458L14.6016 8.69977L16.0689 8.15494L15.1387 5.64975Z" fill="#212E35"/>
</svg>
