<svg width="24" height="24" viewBox="0 0 24 24" fill="none" xmlns="http://www.w3.org/2000/svg">
<path d="M7.03125 19.5469H5.625V20.9531H7.03125V19.5469Z" fill="#212E35"/>
<path d="M7.03125 12.1875H5.625V18.1406H7.03125V12.1875Z" fill="#212E35"/>
<path d="M20.9367 10.0781C20.8723 9.77845 20.7932 9.48422 20.7001 9.19617L23.3532 7.66439L21.4313 4.33561L18.7743 5.86969C18.5704 5.64455 18.3555 5.42963 18.1303 5.22572L19.6644 2.56866L16.3356 0.646781L14.8038 3.29986C14.5158 3.20681 14.2215 3.12769 13.9219 3.06333V0H10.0781V0.579609L9.49852 0H7.96875V5.10633L7.01423 6.09375H5.64202L4.6875 5.10633V0H3.15773L0 3.15773V7.62352L3.15773 10.7812H3.28125V20.9531C3.28125 22.6332 4.64808 24 6.32812 24C8.00817 24 9.375 22.6332 9.375 20.9531V20.7579C9.60703 20.8275 9.84155 20.8873 10.0781 20.938V24H13.9219V20.9367C14.2215 20.8723 14.5158 20.7932 14.8038 20.7001L16.3356 23.3532L19.6644 21.4313L18.1303 18.7743C18.3555 18.5704 18.5704 18.3555 18.7743 18.1303L21.4313 19.6644L23.3532 16.3356L20.7001 14.8038C20.7932 14.5158 20.8723 14.2215 20.9367 13.9219H24V10.0781H20.9367ZM16.8503 2.56772L17.7435 3.08334L17.0079 4.35727C16.7213 4.16878 16.4236 3.99586 16.1158 3.84L16.8503 2.56772ZM12.6562 7.07466C15.087 7.39683 16.9688 9.48267 16.9688 12C16.9688 14.7398 14.7398 16.9688 12 16.9688C11.0631 16.9688 10.1617 16.7097 9.375 16.2187V10.7812H9.49852L12.6562 7.62352V7.07466ZM11.4844 1.40625H12.5156V2.87423C12.4658 2.87147 12.4158 2.86931 12.3659 2.86734L11.4844 1.98586V1.40625ZM7.96875 20.9531C7.96875 21.8578 7.23277 22.5938 6.32812 22.5938C5.42348 22.5938 4.6875 21.8578 4.6875 20.9531V10.7812H7.96875V20.9531ZM8.916 9.375H3.74025L1.40625 7.041V3.74025L3.28125 1.86525V5.67492L5.04548 7.5H7.61077L9.375 5.67492V1.86525L11.25 3.74025V7.041L8.916 9.375ZM12.5156 22.5938H11.4844V21.1259C11.6555 21.1353 11.8274 21.1406 12 21.1406C12.1731 21.1406 12.3449 21.1353 12.5156 21.1258V22.5938ZM16.8503 21.4323L16.1158 20.16C16.4235 20.0042 16.7213 19.8312 17.0079 19.6428L17.7434 20.9167L16.8503 21.4323ZM12 19.7344C11.0955 19.7344 10.2142 19.5808 9.375 19.2776V17.8112C10.1938 18.182 11.0839 18.375 12 18.375C15.5152 18.375 18.375 15.5152 18.375 12C18.375 8.70638 15.8643 5.98814 12.6562 5.65861V4.29375C16.615 4.62797 19.7344 7.95633 19.7344 12C19.7344 16.2647 16.2647 19.7344 12 19.7344ZM21.4323 16.8503L20.9167 17.7435L19.6427 17.0079C19.8312 16.7213 20.0041 16.4236 20.16 16.1158L21.4323 16.8503ZM20.16 7.88423C20.0042 7.57645 19.8312 7.27875 19.6428 6.99211L20.9167 6.25659L21.4323 7.1497L20.16 7.88423ZM22.5938 12.5156H21.1258C21.1353 12.3449 21.1406 12.1731 21.1406 12C21.1406 11.8269 21.1353 11.6551 21.1258 11.4844H22.5938V12.5156Z" fill="#212E35"/>
<path d="M12 9.89062C10.8369 9.89062 9.89062 10.8369 9.89062 12C9.89062 13.1631 10.8369 14.1094 12 14.1094C13.1631 14.1094 14.1094 13.1631 14.1094 12C14.1094 10.8369 13.1631 9.89062 12 9.89062ZM12 12.7031C11.6123 12.7031 11.2969 12.3877 11.2969 12C11.2969 11.6123 11.6123 11.2969 12 11.2969C12.3877 11.2969 12.7031 11.6123 12.7031 12C12.7031 12.3877 12.3877 12.7031 12 12.7031Z" fill="#212E35"/>
</svg>
