<svg width="24" height="24" viewBox="0 0 24 24" fill="none" xmlns="http://www.w3.org/2000/svg">
<g clip-path="url(#clip0)">
<path d="M15.6427 8.71875C16.4227 7.63312 17.0869 6.51892 17.0869 5.08685C17.0869 2.2912 14.82 0.0150146 12.0282 0H11.9995C9.19501 0 6.91315 2.28186 6.91315 5.08685C6.91315 6.51892 7.57727 7.63312 8.3573 8.71875H0V24H24V8.71875H15.6427ZM22.5938 18.9082L16.9105 14.2412L16.9107 14.241L20.9048 10.125H22.5938V18.9082ZM18.945 10.125L10.4288 18.9018L10.4286 18.902L5.03943 14.4765H5.03961L9.32812 10.0453L11.9868 13.6716L14.6133 10.125H18.945ZM9.66522 8.12677C8.92914 7.12262 8.3194 6.20068 8.3194 5.08685C8.3194 3.06335 9.96039 1.41614 11.9813 1.40625H12C14.0292 1.40625 15.6806 3.05713 15.6806 5.08685C15.6806 6.20068 15.0709 7.12262 14.3348 8.12714C14.3348 8.12714 12.0249 11.2824 12.0024 11.3143L9.66522 8.12677ZM1.40625 10.125H7.29419L1.40625 16.2079V10.125ZM1.40625 18.2296L4.0578 15.49L9.44623 19.9149L6.8465 22.5938H1.40625V18.2296ZM8.80591 22.5938L15.9282 15.2542V15.254L22.5938 20.7277V22.5938H8.80591Z" fill="#212E35"/>
<path d="M14.4885 5.08667C14.4885 3.71466 13.3725 2.599 12.0009 2.599C10.6292 2.599 9.51318 3.71466 9.51318 5.08667C9.51318 6.45831 10.6292 7.57379 12.0009 7.57379C13.3725 7.57379 14.4885 6.45831 14.4885 5.08667ZM10.9194 5.08667C10.9194 4.49048 11.4047 4.00525 12.0009 4.00525C12.597 4.00525 13.0823 4.49048 13.0823 5.08667C13.0823 5.68249 12.597 6.16754 12.0009 6.16754C11.4047 6.16754 10.9194 5.68249 10.9194 5.08667Z" fill="#212E35"/>
</g>
<defs>
<clipPath id="clip0">
<rect width="24" height="24" fill="white"/>
</clipPath>
</defs>
</svg>
