<svg width="24" height="24" viewBox="0 0 24 24" fill="none" xmlns="http://www.w3.org/2000/svg">
<path d="M18.7969 12.4494V0H4.26562V24H10.8281V22.5938H17.3906V24H18.7969V19.9472L19.3633 18.8145C19.6061 18.3289 19.7344 17.7852 19.7344 17.2423V14.2028C19.7344 13.4855 19.3698 12.8333 18.7969 12.4494ZM5.67188 1.40625H17.3906V2.8125H5.67188V1.40625ZM5.67188 4.21875H17.3906V11.9551L13.6406 10.9455V7.3125C13.6406 6.14939 12.6944 5.20312 11.5312 5.20312C10.3681 5.20312 9.42188 6.14939 9.42188 7.3125V11.6609C8.07984 11.9793 7.07812 13.187 7.07812 14.625V16.2725C7.07812 17.2116 7.4438 18.0944 8.10783 18.7584L8.19314 18.8438H5.67188V4.21875ZM9.42188 22.5938H5.67188V20.25H9.42188V22.5938ZM18.3281 17.2423C18.3281 17.568 18.2511 17.8943 18.1055 18.1857L17.3906 19.6153V21.1875H10.8281V19.49L9.10219 17.7641C8.7038 17.3656 8.48438 16.836 8.48438 16.2725V14.625C8.48438 13.9718 8.86809 13.4068 9.42188 13.143V15.75H10.8281V7.3125C10.8281 6.9248 11.1435 6.60938 11.5312 6.60938C11.919 6.60938 12.2344 6.9248 12.2344 7.3125V12.0233L17.8078 13.5238C18.1141 13.6063 18.3281 13.8855 18.3281 14.2028V17.2423Z" fill="#212E35"/>
</svg>
