<svg width="24" height="24" viewBox="0 0 24 24" fill="none" xmlns="http://www.w3.org/2000/svg">
<path d="M12.0546 0.000183105L12.017 0C7.0968 0 3.09375 4.00342 3.09375 8.92438C3.09375 11.6223 4.47272 13.7265 6.00916 15.8218L12.0053 24L18.0273 15.822C19.5635 13.7267 20.9427 11.6224 20.9427 8.92456C20.9427 4.01587 16.9587 0.0201416 12.0546 0.000183105ZM16.8933 14.9905C16.8933 14.9905 12.2353 21.3604 12.0244 21.6476L7.14313 14.9903C5.69696 13.0181 4.5 11.2002 4.5 8.92438C4.5 4.79041 7.85321 1.42511 11.9821 1.40625H12.0181C16.1638 1.40625 19.5364 4.77905 19.5364 8.92456C19.5364 11.2004 18.3393 13.0181 16.8933 14.9905Z" fill="#212E35"/>
<path d="M12.0178 3.12463C8.82001 3.12463 6.21826 5.72638 6.21826 8.92432C6.21826 12.1221 8.82001 14.7238 12.0178 14.7238C15.2157 14.7238 17.8174 12.1221 17.8174 8.92413C17.8174 5.72638 15.2157 3.12463 12.0178 3.12463ZM12.0178 13.3176C9.59528 13.3176 7.62451 11.3466 7.62451 8.92413C7.62451 6.50165 9.59528 4.53088 12.0178 4.53088C14.4404 4.53088 16.4112 6.50165 16.4112 8.92413C16.4112 11.3468 14.4402 13.3176 12.0178 13.3176Z" fill="#212E35"/>
<path d="M12.4885 5.91748H10.4341V11.9999H11.8401V10.0974L12.4493 10.1089C13.0161 10.1196 13.5518 9.90662 13.9567 9.50928C14.3615 9.11194 14.5845 8.58075 14.5845 8.01349C14.5845 6.85754 13.6443 5.91748 12.4885 5.91748ZM12.9717 8.50549C12.8384 8.63641 12.6616 8.70636 12.4757 8.70288L11.8401 8.69098V7.32373H12.4885C12.8688 7.32373 13.1783 7.633 13.1783 8.01331C13.1783 8.20007 13.1049 8.37476 12.9717 8.50549Z" fill="#212E35"/>
</svg>
