<svg width="24" height="24" viewBox="0 0 24 24" fill="none" xmlns="http://www.w3.org/2000/svg">
<path d="M17.6318 7.39148L16.6509 8.39915C17.6315 9.35372 18.1715 10.6326 18.1715 12.0001C18.1715 13.3676 17.6315 14.6465 16.6509 15.601L17.6318 16.6087C18.8867 15.3871 19.5778 13.7504 19.5778 12.0001C19.5778 10.2498 18.8867 8.61304 17.6318 7.39148Z" fill="#212E35"/>
<path d="M15.7197 9.41931L14.7388 10.427C15.1675 10.8443 15.4036 11.403 15.4036 12.0002C15.4036 12.5974 15.1675 13.1561 14.7388 13.5734L15.7197 14.5811C16.4227 13.8967 16.8099 12.9802 16.8099 12.0002C16.8099 11.0202 16.4227 10.1037 15.7197 9.41931Z" fill="#212E35"/>
<path d="M10.0595 0.0005625C8.446 0.0643125 6.98008 1.41188 5.93181 3.79505C4.95812 6.00863 4.42188 8.92256 4.42188 12C4.42188 15.1143 4.96923 18.0532 5.96312 20.2752C7.0375 22.6772 8.53436 24 10.1779 24H14.1837V16.0179H10.9675C10.7213 14.7582 10.5967 13.4213 10.5967 12.0353C10.5967 10.6218 10.7259 9.26105 10.981 7.98206H14.1837V0H10.0873L10.0595 0.0005625ZM12.7774 1.40625V6.57581H9.85473L9.72845 7.12003C9.37141 8.65884 9.19037 10.3125 9.19037 12.0353C9.19037 13.7287 9.36583 15.3577 9.71186 16.8772L9.83645 17.4242H12.7774V22.5938H10.1778C9.13736 22.5938 8.06903 21.5394 7.24675 19.701C6.33198 17.6557 5.82812 14.9207 5.82812 12C5.82812 9.11316 6.32209 6.40036 7.219 4.3612C8.02398 2.53125 9.07427 1.45528 10.1025 1.40625H12.7774Z" fill="#212E35"/>
</svg>
