<svg
        xmlns="http://www.w3.org/2000/svg"
        xmlns:xlink="http://www.w3.org/1999/xlink"
        width="22px" height="42px">
    <path fill-rule="evenodd"  fill="rgb(30, 168, 166)"
          d="M21.563,22.019 C21.526,22.056 21.478,22.071 21.438,22.103 L2.390,41.554 C1.843,42.113 0.955,42.113 0.407,41.554 C-0.141,40.994 -0.141,40.088 0.407,39.528 L18.567,20.985 L0.408,2.442 C-0.140,1.882 -0.140,0.976 0.408,0.416 C0.955,-0.143 1.843,-0.143 2.391,0.416 L21.442,19.870 C21.480,19.901 21.527,19.915 21.562,19.951 C21.841,20.236 21.974,20.610 21.969,20.983 C21.975,21.357 21.843,21.733 21.563,22.019 Z"/>
</svg>
