<svg
        xmlns="http://www.w3.org/2000/svg"
        xmlns:xlink="http://www.w3.org/1999/xlink"
        width="16px" height="21px">
    <path fill-rule="evenodd"  fill="rgb(30, 168, 166)"
          d="M16.000,10.587 L16.008,10.595 L16.000,10.603 L16.000,11.000 L15.603,11.000 L12.595,14.008 L11.992,13.405 L14.396,11.000 L5.000,11.000 L5.000,10.000 L14.396,10.000 L11.992,7.595 L12.595,6.992 L15.603,10.000 L16.000,10.000 L16.000,10.397 L16.008,10.405 L16.000,10.413 L16.000,10.587 ZM12.000,4.000 C12.000,3.000 12.000,1.000 12.000,1.000 L1.000,1.000 L1.000,20.000 L12.000,20.000 C12.000,20.000 12.000,18.031 12.000,17.000 C12.000,15.969 13.000,16.031 13.000,17.000 C13.000,17.969 13.000,19.062 13.000,20.000 C13.000,20.937 12.000,21.000 12.000,21.000 C12.000,21.000 2.000,21.000 1.000,21.000 C-0.000,21.000 -0.000,20.000 -0.000,20.000 C-0.000,20.000 -0.000,1.969 -0.000,1.000 C-0.000,0.031 1.000,0.000 1.000,0.000 C1.000,0.000 11.000,0.000 12.000,0.000 C13.000,0.000 13.000,1.000 13.000,1.000 C13.000,1.000 13.000,3.062 13.000,4.000 C13.000,4.937 12.000,5.000 12.000,4.000 Z"/>
</svg>
