<svg
        xmlns="http://www.w3.org/2000/svg"
        xmlns:xlink="http://www.w3.org/1999/xlink"
        width="19px" height="21px">
    <path fill-rule="evenodd"  fill="rgb(30, 168, 166)"
          d="M18.000,21.000 C17.000,21.000 1.969,21.000 1.000,21.000 C0.031,21.000 -0.000,20.000 -0.000,20.000 L-0.000,16.000 L6.000,12.000 L13.000,12.000 L19.000,16.000 L19.000,20.000 C19.000,20.000 19.000,21.000 18.000,21.000 ZM18.000,17.000 C18.000,16.562 17.000,16.000 17.000,16.000 L14.000,14.000 C14.000,14.000 12.656,13.000 12.000,13.000 C11.000,13.000 8.031,13.000 7.000,13.000 C6.375,13.000 5.000,14.000 5.000,14.000 L2.000,16.000 C2.000,16.000 1.000,16.594 1.000,17.000 C1.000,17.406 1.000,18.031 1.000,19.000 C1.000,19.969 2.000,20.000 2.000,20.000 L17.000,20.000 C17.000,20.000 18.000,20.000 18.000,19.000 C18.000,18.000 18.000,17.438 18.000,17.000 ZM9.500,10.000 C7.015,10.000 5.000,7.761 5.000,5.000 C5.000,2.239 7.015,0.000 9.500,0.000 C11.985,0.000 14.000,2.239 14.000,5.000 C14.000,7.761 11.985,10.000 9.500,10.000 ZM9.500,1.111 C7.636,1.111 6.125,2.852 6.125,5.000 C6.125,7.148 7.636,8.889 9.500,8.889 C11.364,8.889 12.875,7.148 12.875,5.000 C12.875,2.852 11.364,1.111 9.500,1.111 Z"/>
</svg>
