<svg
        xmlns="http://www.w3.org/2000/svg"
        xmlns:xlink="http://www.w3.org/1999/xlink"
        width="22px" height="42px">
    <path fill-rule="evenodd"  fill="rgb(30, 168, 166)"
          d="M21.592,2.442 L3.433,20.985 L21.593,39.528 C22.140,40.088 22.140,40.994 21.593,41.554 C21.045,42.113 20.157,42.113 19.610,41.554 L0.562,22.103 C0.522,22.071 0.474,22.056 0.437,22.019 C0.157,21.733 0.025,21.357 0.031,20.983 C0.026,20.610 0.159,20.236 0.438,19.951 C0.473,19.915 0.520,19.901 0.558,19.870 L19.609,0.416 C20.156,-0.143 21.044,-0.143 21.592,0.416 C22.140,0.976 22.140,1.882 21.592,2.442 Z"/>
</svg>
