<svg xmlns="http://www.w3.org/2000/svg" width="320.091" height="22.034" viewBox="0 0 320.091 22.034">
  <path id="Path_15" data-name="Path 15" d="M45.375,7.659H32.7V11.04h6.026L31.46,23H44.593V19.619h-6.44Zm8.947,6.049a4.069,4.069,0,0,0-3.082-1.334,5.292,5.292,0,0,0-3.7,1.449A5.688,5.688,0,0,0,45.95,17.94a5.186,5.186,0,0,0,1.472,3.772,4.923,4.923,0,0,0,3.7,1.633,3.84,3.84,0,0,0,3.2-1.472V23H58V12.719h-3.68ZM52.068,15.5a2.356,2.356,0,0,1,1.656.667,2.274,2.274,0,0,1,.713,1.679,2.232,2.232,0,0,1-.69,1.656,2.36,2.36,0,0,1-1.656.713,2.584,2.584,0,0,1-1.656-.69,2.371,2.371,0,0,1-.713-1.679,2.406,2.406,0,0,1,.736-1.679A2.352,2.352,0,0,1,52.068,15.5ZM60.532,23h3.68V17.917a3.039,3.039,0,0,1,.644-2.254,1.3,1.3,0,0,1,1.012-.368,1.427,1.427,0,0,1,1.1.414,3.289,3.289,0,0,1,.483,2.208V23h3.68V17.733a2.628,2.628,0,0,1,.667-1.955,1.489,1.489,0,0,1,1.081-.414,1.342,1.342,0,0,1,.966.345,3.054,3.054,0,0,1,.529,2.208V23h3.68V16.307a3.777,3.777,0,0,0-.966-2.829,4.086,4.086,0,0,0-2.852-.943,4.17,4.17,0,0,0-2.139.506,3.613,3.613,0,0,0-1.4,1.426,3.211,3.211,0,0,0-1.426-1.472,4.185,4.185,0,0,0-1.978-.46,3.95,3.95,0,0,0-3.082,1.426V12.719h-3.68Zm25.852-7.5a2.532,2.532,0,0,1,1.633.667,2.5,2.5,0,0,1,.713,1.679,2.268,2.268,0,0,1-.713,1.633,2.3,2.3,0,0,1-3.289,0,2.279,2.279,0,0,1,0-3.312A2.543,2.543,0,0,1,86.384,15.5Zm6.164,2.346a5.082,5.082,0,0,0-1.587-3.772,6.5,6.5,0,0,0-4.6-1.7,6.419,6.419,0,0,0-4.577,1.7,5.3,5.3,0,0,0,0,7.567,7.036,7.036,0,0,0,9.177,0A5.131,5.131,0,0,0,92.548,17.848ZM87.465,6.233,84.544,9.775l1.7,1.265,3.542-3.128ZM93.4,12.719,98.689,23h2.484l2.461-5.658L106.21,23h2.484l5.382-10.281h-4.094l-2.576,5.589-2.6-5.589h-2.254l-2.6,5.428-2.438-5.428Zm33.465,3.013V12.719h-2.093V9.338h-3.68v3.381h-1.173v3.013h1.173V23h3.68V15.732Zm12.282,2.415a5.756,5.756,0,0,0-1.633-4.324,5.632,5.632,0,0,0-3.956-1.4,5.789,5.789,0,0,0-4.209,1.495,5.487,5.487,0,0,0-1.541,3.979,5.385,5.385,0,0,0,1.518,3.887,5.831,5.831,0,0,0,4.255,1.564,5.588,5.588,0,0,0,4.186-1.426,4.621,4.621,0,0,0,1.242-2.116h-3.519a1.712,1.712,0,0,1-.644.69,2.9,2.9,0,0,1-1.2.276,2.067,2.067,0,0,1-1.518-.506,2.6,2.6,0,0,1-.644-1.725h7.659ZM131.6,16.422a2.1,2.1,0,0,1,.552-1.1,1.977,1.977,0,0,1,1.5-.552,2.144,2.144,0,0,1,1.518.552,2.467,2.467,0,0,1,.6,1.1ZM141.262,23h3.68V18.607a3.1,3.1,0,0,1,.828-2.346,2.411,2.411,0,0,1,1.679-.552,3.246,3.246,0,0,1,1.587.368V12.6c-.483-.023-.644-.046-.736-.046a4.014,4.014,0,0,0-1.909.414,3.317,3.317,0,0,0-1.449,1.426V12.719h-3.68Zm17.365-9.292a4.068,4.068,0,0,0-3.082-1.334,5.292,5.292,0,0,0-3.7,1.449,5.688,5.688,0,0,0-1.587,4.117,5.186,5.186,0,0,0,1.472,3.772,4.923,4.923,0,0,0,3.7,1.633,3.84,3.84,0,0,0,3.2-1.472V23h3.68V12.719h-3.68ZM156.373,15.5a2.356,2.356,0,0,1,1.656.667,2.274,2.274,0,0,1,.713,1.679,2.232,2.232,0,0,1-.69,1.656,2.36,2.36,0,0,1-1.656.713,2.584,2.584,0,0,1-1.656-.69,2.371,2.371,0,0,1-.713-1.679,2.406,2.406,0,0,1,.736-1.679A2.352,2.352,0,0,1,156.373,15.5ZM175,12.719H164.745v3.013h4.14L164.032,23H174.5V19.987h-4.3Zm7.084-6.486V23h3.68V18.791L189.516,23h5.106l-5.244-5.543,4.853-4.738H189.24l-3.473,3.7V6.233Zm20.93,7.475a4.069,4.069,0,0,0-3.082-1.334,5.292,5.292,0,0,0-3.7,1.449,5.688,5.688,0,0,0-1.587,4.117,5.186,5.186,0,0,0,1.472,3.772,4.923,4.923,0,0,0,3.7,1.633,3.84,3.84,0,0,0,3.2-1.472V23h3.68V12.719h-3.68ZM200.763,15.5a2.356,2.356,0,0,1,1.656.667,2.274,2.274,0,0,1,.713,1.679,2.232,2.232,0,0,1-.69,1.656,2.36,2.36,0,0,1-1.656.713,2.584,2.584,0,0,1-1.656-.69,2.371,2.371,0,0,1-.713-1.679,2.406,2.406,0,0,1,.736-1.679A2.352,2.352,0,0,1,200.763,15.5Zm8.464,7.5h3.68V18.607a3.1,3.1,0,0,1,.828-2.346,2.411,2.411,0,0,1,1.679-.552,3.246,3.246,0,0,1,1.587.368V12.6c-.483-.023-.644-.046-.736-.046a4.014,4.014,0,0,0-1.909.414,3.317,3.317,0,0,0-1.449,1.426V12.719h-3.68Zm15.916-7.268V12.719H223.05V9.338h-3.68v3.381H218.2v3.013h1.173V23h3.68V15.732Zm12.282,2.415a5.756,5.756,0,0,0-1.633-4.324,5.632,5.632,0,0,0-3.956-1.4,5.789,5.789,0,0,0-4.209,1.495,5.414,5.414,0,0,0-1.541,3.979,5.392,5.392,0,0,0,1.426,3.818,5.778,5.778,0,0,0,4.209,1.656,4.619,4.619,0,0,0,.575-.023,3.276,3.276,0,0,0-.851.92,2.48,2.48,0,0,0-.391,1.311,1.9,1.9,0,0,0,.46,1.173,2.183,2.183,0,0,0,1.656.621,2.74,2.74,0,0,0,1.518-.391l.483-1.955a2.049,2.049,0,0,1-1.127.414.949.949,0,0,1-.667-.253.931.931,0,0,1-.253-.621,1.2,1.2,0,0,1,.437-.874,6.55,6.55,0,0,1,1.127-.782,5.894,5.894,0,0,0,1.357-.92,4.522,4.522,0,0,0,1.242-2.162h-3.519a1.488,1.488,0,0,1-.575.621,2.088,2.088,0,0,1-1.2.345,2.208,2.208,0,0,1-1.564-.506,2.533,2.533,0,0,1-.667-1.748h7.659Zm-7.544-1.725a2.016,2.016,0,0,1,.552-1.1,1.966,1.966,0,0,1,1.495-.552,2.063,2.063,0,0,1,1.518.552,2.467,2.467,0,0,1,.6,1.1Zm18.7,5.589a4.376,4.376,0,0,0,3.2,1.334,4.938,4.938,0,0,0,3.519-1.426,5.566,5.566,0,0,0,1.656-4.071,5.565,5.565,0,0,0-1.564-3.979,5.111,5.111,0,0,0-3.657-1.495,3.843,3.843,0,0,0-3.151,1.472V12.719H244.9V28.267h3.68Zm2.254-6.509a2.221,2.221,0,0,1,1.633.69,2.508,2.508,0,0,1,.713,1.7,2.433,2.433,0,0,1-.713,1.633,2.221,2.221,0,0,1-1.633.69,2.351,2.351,0,0,1-1.656-.69,2.481,2.481,0,0,1-.713-1.633,2.508,2.508,0,0,1,.713-1.7A2.351,2.351,0,0,1,250.834,15.5Zm16.192-1.794a4.068,4.068,0,0,0-3.082-1.334,5.292,5.292,0,0,0-3.7,1.449,5.688,5.688,0,0,0-1.587,4.117,5.186,5.186,0,0,0,1.472,3.772,4.923,4.923,0,0,0,3.7,1.633,3.84,3.84,0,0,0,3.2-1.472V23h3.68V12.719h-3.68ZM264.772,15.5a2.356,2.356,0,0,1,1.656.667,2.274,2.274,0,0,1,.713,1.679,2.232,2.232,0,0,1-.69,1.656,2.36,2.36,0,0,1-1.656.713,2.584,2.584,0,0,1-1.656-.69,2.371,2.371,0,0,1-.713-1.679,2.406,2.406,0,0,1,.736-1.679A2.352,2.352,0,0,1,264.772,15.5Zm8.464-9.269V23h3.68V6.233Zm6.187,6.486V23h3.68V12.719Zm-.23-4.278a2.07,2.07,0,1,0,2.07-2.07A2.061,2.061,0,0,0,279.193,8.441Zm5.152,4.278L289.635,23h2.484l2.461-5.658L297.156,23h2.484l5.382-10.281h-4.094l-2.576,5.589-2.6-5.589H293.5l-2.6,5.428-2.438-5.428ZM311.83,15.5a2.532,2.532,0,0,1,1.633.667,2.5,2.5,0,0,1,.713,1.679,2.268,2.268,0,0,1-.713,1.633,2.3,2.3,0,0,1-3.289,0,2.279,2.279,0,0,1,0-3.312A2.543,2.543,0,0,1,311.83,15.5Zm6.164,2.346a5.082,5.082,0,0,0-1.587-3.772,6.5,6.5,0,0,0-4.6-1.7,6.419,6.419,0,0,0-4.577,1.7,5.3,5.3,0,0,0,0,7.567,7.036,7.036,0,0,0,9.177,0A5.131,5.131,0,0,0,317.994,17.848Zm.851-5.129L324.135,23h2.484l2.461-5.658L331.656,23h2.484l5.382-10.281h-4.094l-2.576,5.589-2.6-5.589H328l-2.6,5.428-2.438-5.428Zm29.026.989a4.272,4.272,0,0,0-3.2-1.334,5.2,5.2,0,0,0-3.588,1.449,5.706,5.706,0,0,0-1.564,4.094,5.06,5.06,0,0,0,1.449,3.8,5.182,5.182,0,0,0,3.726,1.633,3.839,3.839,0,0,0,3.174-1.564V23h1.081a4.209,4.209,0,0,0-1.288,1.173,2.727,2.727,0,0,0-.437,1.4,1.851,1.851,0,0,0,.46,1.173,2.183,2.183,0,0,0,1.656.621,2.74,2.74,0,0,0,1.518-.391l.483-1.955a2.049,2.049,0,0,1-1.127.414.949.949,0,0,1-.667-.253.931.931,0,0,1-.253-.621,1.2,1.2,0,0,1,.437-.874,6.63,6.63,0,0,1,.9-.69h.92V12.719h-3.68ZM345.64,15.5a2.188,2.188,0,0,1,1.633.667,2.317,2.317,0,0,1,.713,1.679,2.232,2.232,0,0,1-.69,1.656,2.284,2.284,0,0,1-1.656.713,2.435,2.435,0,0,1-1.656-.69,2.367,2.367,0,0,1-.69-1.679,2.241,2.241,0,0,1,.713-1.679A2.188,2.188,0,0,1,345.64,15.5Z" transform="translate(-31.46 -6.233)" fill="#fff"/>
</svg>
