<svg xmlns="http://www.w3.org/2000/svg" width="392.108" height="46.098" viewBox="0 0 392.108 46.098">
  <g id="Group_110" data-name="Group 110" transform="translate(-569 -1551.962)">
    <rect id="Rectangle_7" data-name="Rectangle 7" width="16" height="16" rx="3" transform="translate(569 1553)" fill="#ffc717"/>
    <path id="Path_16" data-name="Path 16" d="M11.7,22h1.8L6.93,6.622.176,22h1.8l1.76-4.136H9.988ZM4.378,16.324,6.886,10.45,9.35,16.324ZM15.18,5.962V22h1.584V18.238l.4-.4L20.812,22H22.88l-4.62-5.214,3.916-3.916H20.108l-3.344,3.388V5.962ZM31.394,13.53a4.836,4.836,0,0,0-2.838-.88,4.717,4.717,0,0,0-4.884,4.84,4.676,4.676,0,0,0,4.884,4.774,4.876,4.876,0,0,0,2.9-.946V19.426a3.892,3.892,0,0,1-2.948,1.43A3.177,3.177,0,0,1,25.3,17.468a3.177,3.177,0,0,1,3.234-3.41,3.683,3.683,0,0,1,2.86,1.364Zm9.262,5.412A3.637,3.637,0,0,1,39.71,20.2a2.776,2.776,0,0,1-1.87.66,2.924,2.924,0,0,1-2.9-3.1h7.106a6.13,6.13,0,0,0-.858-3.432A4.085,4.085,0,0,0,37.73,12.65c-2.75,0-4.422,2.112-4.422,4.84,0,3.388,2.31,4.774,4.51,4.774a4.432,4.432,0,0,0,3.036-1.122,5.462,5.462,0,0,0,1.122-1.474Zm-5.61-2.508a2.775,2.775,0,0,1,2.684-2.376,2.732,2.732,0,0,1,2.684,2.376Zm11,4.29a3.876,3.876,0,0,0,3.19,1.54c2.772,0,4.378-2.266,4.378-4.774,0-2.464-1.584-4.84-4.444-4.84a3.926,3.926,0,0,0-3.124,1.5V12.87H44.462V27.06h1.584Zm2.97.132a3.123,3.123,0,0,1-3.058-3.388,3.169,3.169,0,0,1,3.036-3.41,3.131,3.131,0,0,1,2.992,3.432A3.075,3.075,0,0,1,49.016,20.856Zm10.23-6.534V12.87H57.662V9.57H56.078v3.3H55.11v1.452h.968V22h1.584V14.322Zm8.492-.154a3.777,3.777,0,0,0-3.124-1.518c-2.332,0-4.444,1.628-4.444,4.774,0,3.212,2.134,4.84,4.444,4.84a3.851,3.851,0,0,0,3.124-1.54V22h1.584V12.87H67.738Zm-2.948-.11a3.092,3.092,0,0,1,3.036,3.388,3.122,3.122,0,0,1-3.036,3.41c-1.892,0-2.992-1.474-2.992-3.432A3.034,3.034,0,0,1,64.79,14.058Zm14.674-.528a4.836,4.836,0,0,0-2.838-.88,4.717,4.717,0,0,0-4.884,4.84,4.676,4.676,0,0,0,4.884,4.774,4.876,4.876,0,0,0,2.9-.946V19.426a3.892,3.892,0,0,1-2.948,1.43,3.177,3.177,0,0,1-3.212-3.388,3.177,3.177,0,0,1,3.234-3.41,3.683,3.683,0,0,1,2.86,1.364Zm2.486-.66V27.06h1.584V12.87Zm-.33-3.454a1.122,1.122,0,1,0,1.122-1.122A1.127,1.127,0,0,0,81.62,9.416Zm11.9,4.752A3.777,3.777,0,0,0,90.4,12.65c-2.332,0-4.444,1.628-4.444,4.774,0,3.212,2.134,4.84,4.444,4.84a3.851,3.851,0,0,0,3.124-1.54V22h1.584V12.87H93.522Zm-2.948-.11a3.092,3.092,0,0,1,3.036,3.388,3.122,3.122,0,0,1-3.036,3.41c-1.892,0-2.992-1.474-2.992-3.432A3.034,3.034,0,0,1,90.574,14.058Zm12.65-8.1V22h1.584V18.238l.4-.4L108.856,22h2.068l-4.62-5.214,3.916-3.916h-2.068l-3.344,3.388V5.962Zm16.28,8.206a3.777,3.777,0,0,0-3.124-1.518c-2.332,0-4.444,1.628-4.444,4.774,0,3.212,2.134,4.84,4.444,4.84a3.851,3.851,0,0,0,3.124-1.54V22h1.584V12.87H119.5Zm-2.948-.11a3.092,3.092,0,0,1,3.036,3.388,3.122,3.122,0,0,1-3.036,3.41c-1.892,0-2.992-1.474-2.992-3.432A3.034,3.034,0,0,1,116.556,14.058ZM124.08,22h1.584V17.182a3.94,3.94,0,0,1,.528-2.464,1.533,1.533,0,0,1,1.276-.572,1.63,1.63,0,0,1,.924.308l.748-1.43a3.346,3.346,0,0,0-1.408-.374,2.537,2.537,0,0,0-2.068,1.21v-.99H124.08Zm10.164-7.678V12.87H132.66V9.57h-1.584v3.3h-.968v1.452h.968V22h1.584V14.322Zm10.89,7.942a4.683,4.683,0,0,0,4.84-4.8,4.84,4.84,0,0,0-9.68,0A4.683,4.683,0,0,0,145.134,22.264Zm0-8.206a3.16,3.16,0,0,1,3.212,3.41,3.217,3.217,0,1,1-6.424,0A3.173,3.173,0,0,1,145.134,14.058ZM152.394,22h1.584V17.226a3.846,3.846,0,0,1,.66-2.464,2,2,0,0,1,1.606-.7,1.792,1.792,0,0,1,1.5.66,2.684,2.684,0,0,1,.418,1.672V22h1.584V16.346a4.072,4.072,0,0,0-.528-2.442A3.1,3.1,0,0,0,156.6,12.65a3.221,3.221,0,0,0-2.618,1.276V12.87h-1.584Zm10.34-16.038V22h1.584V5.962Zm4.576,6.908V22h1.584V12.87Zm-.33-3.454A1.122,1.122,0,1,0,168.1,8.294,1.127,1.127,0,0,0,166.98,9.416ZM171.886,22h1.584V17.226a3.846,3.846,0,0,1,.66-2.464,2,2,0,0,1,1.606-.7,1.792,1.792,0,0,1,1.5.66,2.684,2.684,0,0,1,.418,1.672V22h1.584V16.346a4.072,4.072,0,0,0-.528-2.442,3.1,3.1,0,0,0-2.618-1.254,3.221,3.221,0,0,0-2.618,1.276V12.87h-1.584ZM189,18.942a3.637,3.637,0,0,1-.946,1.254,2.776,2.776,0,0,1-1.87.66,2.924,2.924,0,0,1-2.9-3.1h7.106a6.13,6.13,0,0,0-.858-3.432,4.085,4.085,0,0,0-3.454-1.672c-2.75,0-4.422,2.112-4.422,4.84,0,3.388,2.31,4.774,4.51,4.774a4.432,4.432,0,0,0,3.036-1.122,5.462,5.462,0,0,0,1.122-1.474Zm-5.61-2.508a2.775,2.775,0,0,1,2.684-2.376,2.732,2.732,0,0,1,2.684,2.376Zm22.99-3.564H197.89v1.452h5.324L196.614,22h9.5V20.548h-6.336Zm15.246,0h-8.492v1.452h5.324L211.86,22h9.5V20.548h-6.336Zm8.448,1.3a3.777,3.777,0,0,0-3.124-1.518c-2.332,0-4.444,1.628-4.444,4.774,0,3.212,2.134,4.84,4.444,4.84a3.851,3.851,0,0,0,3.124-1.54V22h1.584V12.87h-1.584Zm-2.948-.11a3.092,3.092,0,0,1,3.036,3.388,3.122,3.122,0,0,1-3.036,3.41c-1.892,0-2.992-1.474-2.992-3.432A3.034,3.034,0,0,1,227.128,14.058Zm9.108,6.666a3.876,3.876,0,0,0,3.19,1.54c2.772,0,4.378-2.266,4.378-4.774,0-2.464-1.584-4.84-4.444-4.84a3.926,3.926,0,0,0-3.124,1.5V5.962h-1.584V22h1.584Zm2.97.132a3.123,3.123,0,0,1-3.058-3.388,3.169,3.169,0,0,1,3.036-3.41,3.131,3.131,0,0,1,2.992,3.432A3.075,3.075,0,0,1,239.206,20.856ZM253,18.942a3.637,3.637,0,0,1-.946,1.254,2.776,2.776,0,0,1-1.87.66,2.924,2.924,0,0,1-2.9-3.1h7.106a6.13,6.13,0,0,0-.858-3.432,4.085,4.085,0,0,0-3.454-1.672c-2.75,0-4.422,2.112-4.422,4.84,0,3.388,2.31,4.774,4.51,4.774a4.432,4.432,0,0,0,3.036-1.122,5.462,5.462,0,0,0,1.122-1.474Zm-5.61-2.508a2.775,2.775,0,0,1,2.684-2.376,2.732,2.732,0,0,1,2.684,2.376Zm17.644-3.564h-8.492v1.452h5.324L255.266,22h9.5V20.548h-6.336Zm3.256,7.854a3.876,3.876,0,0,0,3.19,1.54c2.772,0,4.378-2.266,4.378-4.774,0-2.464-1.584-4.84-4.444-4.84a3.926,3.926,0,0,0-3.124,1.5V12.87h-1.584V27.06h1.584Zm2.97.132a3.123,3.123,0,0,1-3.058-3.388,3.169,3.169,0,0,1,3.036-3.41,3.131,3.131,0,0,1,2.992,3.432A3.075,3.075,0,0,1,271.26,20.856Zm7.018-7.986V22h1.584V12.87Zm-.33-3.454a1.122,1.122,0,1,0,1.122-1.122A1.127,1.127,0,0,0,277.948,9.416Zm11.682,9.526a3.637,3.637,0,0,1-.946,1.254,2.776,2.776,0,0,1-1.87.66,2.924,2.924,0,0,1-2.9-3.1h7.106a6.13,6.13,0,0,0-.858-3.432A4.085,4.085,0,0,0,286.7,12.65c-2.75,0-4.422,2.112-4.422,4.84,0,3.388,2.31,4.774,4.51,4.774a4.432,4.432,0,0,0,3.036-1.122,5.462,5.462,0,0,0,1.122-1.474Zm-5.61-2.508a2.775,2.775,0,0,1,2.684-2.376,2.732,2.732,0,0,1,2.684,2.376Zm16.566-2.9a4.836,4.836,0,0,0-2.838-.88,4.717,4.717,0,0,0-4.884,4.84,4.676,4.676,0,0,0,4.884,4.774,4.876,4.876,0,0,0,2.9-.946V19.426a3.892,3.892,0,0,1-2.948,1.43,3.177,3.177,0,0,1-3.212-3.388,3.177,3.177,0,0,1,3.234-3.41,3.683,3.683,0,0,1,2.86,1.364Zm10.934-.66h-8.492v1.452h5.324L301.752,22h9.5V20.548H304.92Zm8.228,6.072A3.637,3.637,0,0,1,318.8,20.2a2.776,2.776,0,0,1-1.87.66,2.924,2.924,0,0,1-2.9-3.1h7.106a6.13,6.13,0,0,0-.858-3.432,4.085,4.085,0,0,0-3.454-1.672c-2.75,0-4.422,2.112-4.422,4.84,0,3.388,2.31,4.774,4.51,4.774a4.432,4.432,0,0,0,3.036-1.122,5.462,5.462,0,0,0,1.122-1.474Zm-5.61-2.508a2.775,2.775,0,0,1,2.684-2.376,2.732,2.732,0,0,1,2.684,2.376ZM323.554,22h1.584V17.226a3.846,3.846,0,0,1,.66-2.464,2,2,0,0,1,1.606-.7,1.792,1.792,0,0,1,1.5.66,2.684,2.684,0,0,1,.418,1.672V22H330.9V16.346a4.072,4.072,0,0,0-.528-2.442,3.1,3.1,0,0,0-2.618-1.254,3.221,3.221,0,0,0-2.618,1.276V12.87h-1.584Zm10.34-9.13V22h1.584V12.87Zm-.33-3.454a1.122,1.122,0,1,0,1.122-1.122A1.127,1.127,0,0,0,333.564,9.416Zm11.682,9.526A3.637,3.637,0,0,1,344.3,20.2a2.776,2.776,0,0,1-1.87.66,2.924,2.924,0,0,1-2.9-3.1h7.106a6.13,6.13,0,0,0-.858-3.432,4.085,4.085,0,0,0-3.454-1.672c-2.75,0-4.422,2.112-4.422,4.84,0,3.388,2.31,4.774,4.51,4.774a4.432,4.432,0,0,0,3.036-1.122,5.462,5.462,0,0,0,1.122-1.474Zm-5.61-2.508a2.775,2.775,0,0,1,2.684-2.376A2.732,2.732,0,0,1,345,16.434ZM349.052,22h1.584V17.028c0-1.1.2-2.97,2-2.97,1.672,0,1.65,1.892,1.65,2.53V22h1.584V16.918c0-1.1.2-2.86,2.024-2.86,1.5,0,1.628,1.364,1.628,2.4V22h1.584V16.214c0-1.3-.264-3.564-2.97-3.564a3.048,3.048,0,0,0-2.75,1.474A2.734,2.734,0,0,0,352.9,12.65a2.652,2.652,0,0,0-2.266,1.188V12.87h-1.584ZM.176,37.87l4.488,9.768,2.816-6.82,2.816,6.82,4.532-9.768h-1.76l-2.728,6.2L7.5,37.166l-2.86,6.908-2.706-6.2ZM23.21,45.724a3.876,3.876,0,0,0,3.19,1.54c2.772,0,4.378-2.266,4.378-4.774,0-2.464-1.584-4.84-4.444-4.84a3.926,3.926,0,0,0-3.124,1.5V37.87H21.626V52.06H23.21Zm2.97.132a3.123,3.123,0,0,1-3.058-3.388,3.169,3.169,0,0,1,3.036-3.41A3.131,3.131,0,0,1,29.15,42.49,3.075,3.075,0,0,1,26.18,45.856Zm11.286,1.408a4.807,4.807,0,1,0-4.84-4.8A4.683,4.683,0,0,0,37.466,47.264Zm0-8.206a3.16,3.16,0,0,1,3.212,3.41,3.217,3.217,0,1,1-6.424,0A3.173,3.173,0,0,1,37.466,39.058Zm12.32.242a2.633,2.633,0,0,0-2.508-1.65A2.454,2.454,0,0,0,44.616,40.2a1.983,1.983,0,0,0,.418,1.342,5.955,5.955,0,0,0,2.222,1.342c.858.374,1.474.66,1.474,1.518a1.417,1.417,0,0,1-1.5,1.452,2.066,2.066,0,0,1-1.848-1.5l-1.364.572a3.265,3.265,0,0,0,3.19,2.332,2.9,2.9,0,0,0,3.146-2.992,2.161,2.161,0,0,0-.484-1.474,5.551,5.551,0,0,0-2.288-1.408c-1.034-.44-1.474-.638-1.474-1.3a1.009,1.009,0,0,1,1.1-1.034,1.4,1.4,0,0,1,1.276.924Zm5.9.022V37.87H54.1v-3.3H52.514v3.3h-.968v1.452h.968V47H54.1V39.322Zm8.492-.154A3.777,3.777,0,0,0,61.05,37.65c-2.332,0-4.444,1.628-4.444,4.774,0,3.212,2.134,4.84,4.444,4.84a3.851,3.851,0,0,0,3.124-1.54V47h1.584V37.87H64.174Zm-2.948-.11a3.092,3.092,0,0,1,3.036,3.388,3.122,3.122,0,0,1-3.036,3.41c-1.892,0-2.992-1.474-2.992-3.432A3.034,3.034,0,0,1,61.226,39.058ZM75.9,38.53a4.836,4.836,0,0,0-2.838-.88,4.808,4.808,0,1,0,0,9.614,4.876,4.876,0,0,0,2.9-.946V44.426a3.892,3.892,0,0,1-2.948,1.43,3.177,3.177,0,0,1-3.212-3.388,3.177,3.177,0,0,1,3.234-3.41,3.683,3.683,0,0,1,2.86,1.364Zm2.486-.66V47H79.97V37.87Zm-.33-3.454a1.122,1.122,0,1,0,1.122-1.122A1.127,1.127,0,0,0,78.056,34.416ZM88.088,37.87V47h1.584V37.87Zm-.33-3.454a1.122,1.122,0,1,0,1.122-1.122A1.127,1.127,0,0,0,87.758,34.416ZM92.664,47h1.584V42.226a3.846,3.846,0,0,1,.66-2.464,2,2,0,0,1,1.606-.7,1.792,1.792,0,0,1,1.5.66,2.684,2.684,0,0,1,.418,1.672V47h1.584V41.346a4.072,4.072,0,0,0-.528-2.442,3.1,3.1,0,0,0-2.618-1.254,3.221,3.221,0,0,0-2.618,1.276V37.87H92.664ZM110,39.168a3.777,3.777,0,0,0-3.124-1.518c-2.332,0-4.444,1.628-4.444,4.774,0,3.212,2.134,4.84,4.444,4.84A3.851,3.851,0,0,0,110,45.724V47h1.584V30.962H110Zm-2.948-.11a3.092,3.092,0,0,1,3.036,3.388,3.122,3.122,0,0,1-3.036,3.41c-1.892,0-2.992-1.474-2.992-3.432A3.034,3.034,0,0,1,107.052,39.058Zm7.5,13h1.76l6.71-14.19h-1.76l-2.97,6.534L115.06,37.87h-1.8l4.2,8.272Zm8.822-14.19,4.488,9.768,2.816-6.82,2.816,6.82,4.532-9.768h-1.76l-2.728,6.2L130.7,37.166l-2.86,6.908-2.706-6.2Zm16.324,0V47h1.584V37.87Zm-.33-3.454a1.122,1.122,0,1,0,1.122-1.122A1.127,1.127,0,0,0,139.37,34.416Zm11.9,4.752a3.777,3.777,0,0,0-3.124-1.518c-2.332,0-4.444,1.628-4.444,4.774,0,3.212,2.134,4.84,4.444,4.84a3.851,3.851,0,0,0,3.124-1.54V47h1.584V30.962h-1.584Zm-2.948-.11a3.092,3.092,0,0,1,3.036,3.388,3.122,3.122,0,0,1-3.036,3.41c-1.892,0-2.992-1.474-2.992-3.432A3.034,3.034,0,0,1,148.324,39.058Zm9.108-1.188h-1.584v5.5a3.629,3.629,0,0,0,.836,2.75,3.984,3.984,0,0,0,5.588,0,3.629,3.629,0,0,0,.836-2.75v-5.5h-1.584v5.324a3.108,3.108,0,0,1-.44,1.958,2.184,2.184,0,0,1-3.212,0,3.108,3.108,0,0,1-.44-1.958Zm15.664,1.3a3.777,3.777,0,0,0-3.124-1.518c-2.332,0-4.444,1.628-4.444,4.774,0,3.212,2.134,4.84,4.444,4.84a3.851,3.851,0,0,0,3.124-1.54V47h1.584V37.87H173.1Zm-2.948-.11a3.092,3.092,0,0,1,3.036,3.388,3.122,3.122,0,0,1-3.036,3.41c-1.892,0-2.992-1.474-2.992-3.432A3.034,3.034,0,0,1,170.148,39.058Zm7.524-8.1V47h1.584V30.962ZM182.248,47h1.584V42.226a3.846,3.846,0,0,1,.66-2.464,2,2,0,0,1,1.606-.7,1.792,1.792,0,0,1,1.5.66,2.684,2.684,0,0,1,.418,1.672V47H189.6V41.346a4.072,4.072,0,0,0-.528-2.442,3.1,3.1,0,0,0-2.618-1.254,3.221,3.221,0,0,0-2.618,1.276V37.87h-1.584Zm17.116-3.058a3.637,3.637,0,0,1-.946,1.254,2.776,2.776,0,0,1-1.87.66,2.924,2.924,0,0,1-2.9-3.1h7.106a6.13,6.13,0,0,0-.858-3.432,4.085,4.085,0,0,0-3.454-1.672c-2.75,0-4.422,2.112-4.422,4.84,0,3.388,2.31,4.774,4.51,4.774a4.432,4.432,0,0,0,3.036-1.122,5.462,5.462,0,0,0,1.122-1.474Zm-5.61-2.508a2.775,2.775,0,0,1,2.684-2.376,2.732,2.732,0,0,1,2.684,2.376Zm16.412-2.266a3.8,3.8,0,0,0-3.124-1.518,4.5,4.5,0,0,0-3.124,1.232,4.789,4.789,0,0,0-1.32,3.542,4.945,4.945,0,0,0,1.32,3.608,4.373,4.373,0,0,0,3.124,1.232,3.851,3.851,0,0,0,3.124-1.54v1.32a4.244,4.244,0,0,1-.506,2.332,2.56,2.56,0,0,1-2.42,1.276,2.827,2.827,0,0,1-2.2-.88,2.874,2.874,0,0,1-.7-1.892h-1.562a4.114,4.114,0,0,0,1.188,2.948,4.521,4.521,0,0,0,3.256,1.232,4.442,4.442,0,0,0,3.652-1.694,5.744,5.744,0,0,0,.88-3.586V37.87h-1.584Zm-2.948-.11a2.927,2.927,0,0,1,2.068.814,3.61,3.61,0,0,1,.968,2.574,3.7,3.7,0,0,1-1.034,2.64,2.7,2.7,0,0,1-2,.77,2.762,2.762,0,0,1-1.958-.748,3.519,3.519,0,0,1-1.034-2.684,3.476,3.476,0,0,1,.924-2.508A2.83,2.83,0,0,1,207.218,39.058Zm11.792,8.206a4.807,4.807,0,1,0-4.84-4.8A4.683,4.683,0,0,0,219.01,47.264Zm0-8.206a3.16,3.16,0,0,1,3.212,3.41,3.217,3.217,0,1,1-6.424,0A3.173,3.173,0,0,1,219.01,39.058Zm12.386-8.1V47h1.584V43.238l.4-.4L237.028,47H239.1l-4.62-5.214,3.916-3.916h-2.068l-3.344,3.388v-10.3Zm13.222,16.3a4.807,4.807,0,1,0-4.84-4.8A4.683,4.683,0,0,0,244.618,47.264Zm0-8.206a3.16,3.16,0,0,1,3.212,3.41,3.217,3.217,0,1,1-6.424,0A3.173,3.173,0,0,1,244.618,39.058Zm14.256.11a3.777,3.777,0,0,0-3.124-1.518c-2.332,0-4.444,1.628-4.444,4.774,0,3.212,2.134,4.84,4.444,4.84a3.851,3.851,0,0,0,3.124-1.54V47h1.584V30.962h-1.584Zm-2.948-.11a3.092,3.092,0,0,1,3.036,3.388,3.122,3.122,0,0,1-3.036,3.41c-1.892,0-2.992-1.474-2.992-3.432A3.034,3.034,0,0,1,255.926,39.058Zm9.108-1.188H263.45v5.5a3.629,3.629,0,0,0,.836,2.75,3.984,3.984,0,0,0,5.588,0,3.629,3.629,0,0,0,.836-2.75v-5.5h-1.584v5.324a3.108,3.108,0,0,1-.44,1.958,2.184,2.184,0,0,1-3.212,0,3.108,3.108,0,0,1-.44-1.958Zm14.19-5.544V47h1.628V40.62h1.43c3.344,0,4.642-2.046,4.642-4.114a4.088,4.088,0,0,0-1.342-3.146,5.3,5.3,0,0,0-3.7-1.034Zm1.628,1.54h1.21c1.056,0,3.234.22,3.234,2.552,0,1.694-1.166,2.662-3.1,2.662h-1.342Zm8.4-1.54V47h1.628V32.326ZM296.3,47V35.67l11.44,11.99V32.326h-1.628V43.7l-11.44-11.99V47Z" transform="translate(600 1546)" fill="#404040"/>
  </g>
</svg>
