<svg xmlns="http://www.w3.org/2000/svg" width="336.074" height="41.346" viewBox="0 0 336.074 41.346">
  <g id="Group_111" data-name="Group 111" transform="translate(-569 -1612.962)">
    <rect id="Rectangle_8" data-name="Rectangle 8" width="16" height="16" rx="3" transform="translate(569 1613)" fill="#ffc717"/>
    <path id="Path_17" data-name="Path 17" d="M9.746,9.372a4.438,4.438,0,0,0-1.43-1.628,3.975,3.975,0,0,0-2.354-.66,3.791,3.791,0,0,0-4.114,3.784,3.047,3.047,0,0,0,1.012,2.4,6.5,6.5,0,0,0,1.958,1.21l1.32.616A6.4,6.4,0,0,1,7.9,16.1a2.189,2.189,0,0,1,.726,1.716,2.777,2.777,0,0,1-2.948,2.9,2.8,2.8,0,0,1-2.112-.814,3.463,3.463,0,0,1-.88-1.87L1.1,18.48a5.319,5.319,0,0,0,1.364,2.6,4.376,4.376,0,0,0,3.19,1.188,4.4,4.4,0,0,0,4.642-4.51A3.531,3.531,0,0,0,9.24,15.092a7.128,7.128,0,0,0-2.266-1.386L5.566,13.09a4.792,4.792,0,0,1-1.54-.924,1.539,1.539,0,0,1-.55-1.276A2.251,2.251,0,0,1,5.94,8.624a2.64,2.64,0,0,1,1.65.506,3.536,3.536,0,0,1,.858,1.1Zm11.594,3.5H12.848v1.452h5.324L11.572,22h9.5V20.548H14.74Zm8.382.66a4.836,4.836,0,0,0-2.838-.88A4.717,4.717,0,0,0,22,17.49a4.676,4.676,0,0,0,4.884,4.774,4.876,4.876,0,0,0,2.9-.946V19.426a3.892,3.892,0,0,1-2.948,1.43,3.177,3.177,0,0,1-3.212-3.388,3.177,3.177,0,0,1,3.234-3.41,3.683,3.683,0,0,1,2.86,1.364Zm10.934-.66H32.164v1.452h5.324L30.888,22h9.5V20.548H34.056Zm8.228,6.072a3.637,3.637,0,0,1-.946,1.254,2.776,2.776,0,0,1-1.87.66,2.924,2.924,0,0,1-2.9-3.1H50.27a6.13,6.13,0,0,0-.858-3.432,4.085,4.085,0,0,0-3.454-1.672c-2.75,0-4.422,2.112-4.422,4.84,0,3.388,2.31,4.774,4.51,4.774a4.432,4.432,0,0,0,3.036-1.122A5.462,5.462,0,0,0,50.2,19.668Zm-5.61-2.508a2.775,2.775,0,0,1,2.684-2.376,2.732,2.732,0,0,1,2.684,2.376Zm16.412-2.266a3.8,3.8,0,0,0-3.124-1.518,4.5,4.5,0,0,0-3.124,1.232,4.789,4.789,0,0,0-1.32,3.542,4.945,4.945,0,0,0,1.32,3.608,4.373,4.373,0,0,0,3.124,1.232,3.851,3.851,0,0,0,3.124-1.54v1.32a4.244,4.244,0,0,1-.506,2.332,2.56,2.56,0,0,1-2.42,1.276,2.827,2.827,0,0,1-2.2-.88,2.874,2.874,0,0,1-.7-1.892H52.294a4.114,4.114,0,0,0,1.188,2.948,4.521,4.521,0,0,0,3.256,1.232,4.442,4.442,0,0,0,3.652-1.694,5.744,5.744,0,0,0,.88-3.586V12.87H59.686Zm-2.948-.11a2.927,2.927,0,0,1,2.068.814,3.61,3.61,0,0,1,.968,2.574,3.7,3.7,0,0,1-1.034,2.64,2.7,2.7,0,0,1-2,.77,2.762,2.762,0,0,1-1.958-.748,3.519,3.519,0,0,1-1.034-2.684,3.476,3.476,0,0,1,.924-2.508A2.83,2.83,0,0,1,56.738,14.058ZM68.53,22.264a4.683,4.683,0,0,0,4.84-4.8,4.84,4.84,0,0,0-9.68,0A4.683,4.683,0,0,0,68.53,22.264Zm0-8.206a3.16,3.16,0,0,1,3.212,3.41,3.217,3.217,0,1,1-6.424,0A3.173,3.173,0,0,1,68.53,14.058Zm1.364-6.71-2.31,3.19.99.528L71.522,8.1Zm5.9-1.386v6.072l-1.5,1.166v1.32l1.5-1.166V22h1.584V12.342l1.5-1.166V9.856l-1.5,1.166V5.962Zm8.844,16.3a4.683,4.683,0,0,0,4.84-4.8,4.84,4.84,0,0,0-9.68,0A4.683,4.683,0,0,0,84.634,22.264Zm0-8.206a3.16,3.16,0,0,1,3.212,3.41,3.217,3.217,0,1,1-6.424,0A3.173,3.173,0,0,1,84.634,14.058Zm5.94-1.188,4.488,9.768,2.816-6.82,2.816,6.82,4.532-9.768h-1.76l-2.728,6.2L97.9,12.166l-2.86,6.908-2.706-6.2Zm16.3,14.19h1.76l6.71-14.19h-1.76l-2.97,6.534-3.234-6.534h-1.8l4.2,8.272Zm16.852-6.336a3.876,3.876,0,0,0,3.19,1.54c2.772,0,4.378-2.266,4.378-4.774,0-2.464-1.584-4.84-4.444-4.84a3.926,3.926,0,0,0-3.124,1.5V12.87h-1.584V27.06h1.584Zm2.97.132a3.123,3.123,0,0,1-3.058-3.388,3.169,3.169,0,0,1,3.036-3.41,3.131,3.131,0,0,1,2.992,3.432A3.075,3.075,0,0,1,126.7,20.856ZM133.716,22H135.3V17.182a3.939,3.939,0,0,1,.528-2.464,1.533,1.533,0,0,1,1.276-.572,1.63,1.63,0,0,1,.924.308l.748-1.43a3.346,3.346,0,0,0-1.408-.374,2.537,2.537,0,0,0-2.068,1.21v-.99h-1.584Zm14.718-9.13h-8.492v1.452h5.324L138.666,22h9.5V20.548h-6.336Zm8.228,6.072a3.637,3.637,0,0,1-.946,1.254,2.776,2.776,0,0,1-1.87.66,2.924,2.924,0,0,1-2.9-3.1h7.106a6.13,6.13,0,0,0-.858-3.432,4.085,4.085,0,0,0-3.454-1.672c-2.75,0-4.422,2.112-4.422,4.84,0,3.388,2.31,4.774,4.51,4.774a4.432,4.432,0,0,0,3.036-1.122,5.462,5.462,0,0,0,1.122-1.474Zm-5.61-2.508a2.775,2.775,0,0,1,2.684-2.376,2.732,2.732,0,0,1,2.684,2.376Zm16.412-2.266a3.8,3.8,0,0,0-3.124-1.518,4.5,4.5,0,0,0-3.124,1.232,4.789,4.789,0,0,0-1.32,3.542,4.945,4.945,0,0,0,1.32,3.608,4.373,4.373,0,0,0,3.124,1.232,3.851,3.851,0,0,0,3.124-1.54v1.32a4.244,4.244,0,0,1-.506,2.332,2.56,2.56,0,0,1-2.42,1.276,2.827,2.827,0,0,1-2.2-.88,2.874,2.874,0,0,1-.7-1.892h-1.562a4.114,4.114,0,0,0,1.188,2.948,4.521,4.521,0,0,0,3.256,1.232,4.442,4.442,0,0,0,3.652-1.694,5.744,5.744,0,0,0,.88-3.586V12.87h-1.584Zm-2.948-.11a2.927,2.927,0,0,1,2.068.814,3.61,3.61,0,0,1,.968,2.574,3.7,3.7,0,0,1-1.034,2.64,2.7,2.7,0,0,1-2,.77,2.762,2.762,0,0,1-1.958-.748,3.519,3.519,0,0,1-1.034-2.684,3.476,3.476,0,0,1,.924-2.508A2.83,2.83,0,0,1,164.516,14.058Zm7.524-8.1V22h1.584V5.962Zm11.572,8.206a3.8,3.8,0,0,0-3.124-1.518,4.464,4.464,0,0,0-3.124,1.21,4.976,4.976,0,0,0-1.32,3.564,5.036,5.036,0,0,0,1.3,3.586,4.372,4.372,0,0,0,3.146,1.254,3.764,3.764,0,0,0,1.892-.484,5,5,0,0,0,1.232-1.056V22a2.762,2.762,0,0,0-1.584,2.244,1.738,1.738,0,0,0,.484,1.232,2.429,2.429,0,0,0,1.628.616,2.517,2.517,0,0,0,1.232-.308l.176-1.21a2.164,2.164,0,0,1-1.056.286,1.437,1.437,0,0,1-.88-.242.822.822,0,0,1-.264-.638,1.731,1.731,0,0,1,.506-1.122A5.219,5.219,0,0,1,184.888,22h.308V12.87h-1.584Zm-2.948-.11a2.949,2.949,0,0,1,2.178.924,3.578,3.578,0,0,1,.858,2.464,3.615,3.615,0,0,1-.99,2.6,2.67,2.67,0,0,1-2,.814,3.123,3.123,0,0,1-2.068-.77,3.369,3.369,0,0,1-.968-2.574,3.642,3.642,0,0,1,.9-2.574A2.835,2.835,0,0,1,180.664,14.058Zm14.52.11a3.777,3.777,0,0,0-3.124-1.518c-2.332,0-4.444,1.628-4.444,4.774,0,3.212,2.134,4.84,4.444,4.84a3.851,3.851,0,0,0,3.124-1.54V22h1.584V5.962h-1.584Zm-2.948-.11a3.092,3.092,0,0,1,3.036,3.388,3.122,3.122,0,0,1-3.036,3.41c-1.892,0-2.992-1.474-2.992-3.432A3.034,3.034,0,0,1,192.236,14.058Zm12.65-1.188V22h1.584V12.87Zm-.33-3.454a1.122,1.122,0,1,0,1.122-1.122A1.127,1.127,0,0,0,204.556,9.416Zm16.324,3.762a4.751,4.751,0,0,0-3.036-1.012,3.931,3.931,0,0,0-2.486.682,2.83,2.83,0,0,0-.99,2.156,2.556,2.556,0,0,0,.726,1.826,5.14,5.14,0,0,0,2.046,1.144l.616.22a1.062,1.062,0,0,1,.836.968c0,.66-.572,1.034-1.32,1.034a2.953,2.953,0,0,1-2.112-1.1l-1.408,1.628a4.814,4.814,0,0,0,3.7,1.584,4,4,0,0,0,2.86-1.012,3.166,3.166,0,0,0,1.056-2.42,2.762,2.762,0,0,0-.484-1.584,4.88,4.88,0,0,0-2.42-1.364l-.638-.2c-.748-.242-.858-.616-.858-.858,0-.462.4-.77,1.034-.77a2.228,2.228,0,0,1,1.562.638Zm2.376-7.216V22h2.684V18.194l.286-.264L229.768,22h3.564l-4.818-5.346,4.466-4.18H229.5L225.94,15.95V5.962Zm11.022,6.512V18.3a3.6,3.6,0,0,0,1.166,2.926,6.072,6.072,0,0,0,6.908,0,3.6,3.6,0,0,0,1.166-2.926v-5.83h-2.684v5.39a2.142,2.142,0,0,1-.572,1.672,2.164,2.164,0,0,1-2.728,0,2.142,2.142,0,0,1-.572-1.672v-5.39ZM250.6,14.762V12.474h-1.848V9.218H246.07v3.256h-1.056v2.288h1.056V22h2.684V14.762Zm8.294,4.18a2.456,2.456,0,0,1-2.222,1.254,2.268,2.268,0,0,1-1.914-.9,2.811,2.811,0,0,1-.462-1.606h7.128v-.22a5.7,5.7,0,0,0-1.144-3.74,4.553,4.553,0,0,0-3.718-1.562,4.881,4.881,0,0,0-3.586,1.342,5.074,5.074,0,0,0-1.452,3.74,4.8,4.8,0,0,0,1.5,3.718,4.986,4.986,0,0,0,3.652,1.342,4.706,4.706,0,0,0,4.686-2.97Zm-4.51-2.97a2.285,2.285,0,0,1,4.51,0Zm16.28-3.234a5.683,5.683,0,0,0-2.574-.572,4.91,4.91,0,0,0-5.082,5.1,4.891,4.891,0,0,0,1.518,3.652,5.377,5.377,0,0,0,3.674,1.386,5.44,5.44,0,0,0,2.464-.594V19.1a3.108,3.108,0,0,1-2.112.836,2.653,2.653,0,0,1-2.772-2.706,2.56,2.56,0,0,1,2.684-2.684,3.1,3.1,0,0,1,2.2.836Zm11.132-.264h-9.284v2.288h4.576L271.678,22h9.746V19.712h-5.038ZM283.338,22h2.684V17.138a3.278,3.278,0,0,1,.418-1.848,1.83,1.83,0,0,1,1.65-.836,1.718,1.718,0,0,1,1.254.484,2.73,2.73,0,0,1,.506,1.87V22h2.684V16.016a4.013,4.013,0,0,0-.748-2.684,3.642,3.642,0,0,0-2.816-1.166,3.5,3.5,0,0,0-2.948,1.54V12.474h-2.684Zm19.052-8.294a3.45,3.45,0,0,0-3.058-1.54,4.764,4.764,0,0,0-4.73,5.06,4.834,4.834,0,0,0,4.862,5.082,3.417,3.417,0,0,0,2.926-1.54V22h2.684V12.474H302.39Zm-2.376.836a2.59,2.59,0,0,1,2.64,2.684,2.641,2.641,0,1,1-5.28,0A2.59,2.59,0,0,1,300.014,14.542ZM1.276,30.962V47H3.96V43.194l.286-.264L7.788,47h3.564L6.534,41.654,11,37.474H7.524L3.96,40.95V30.962Zm15.774,6.2a5.482,5.482,0,0,0-3.85,1.342,5.132,5.132,0,0,0,0,7.458,5.482,5.482,0,0,0,3.85,1.342,5.482,5.482,0,0,0,3.85-1.342,5.132,5.132,0,0,0,0-7.458A5.482,5.482,0,0,0,17.05,37.166Zm0,7.766a2.7,2.7,0,1,1,2.684-2.684A2.653,2.653,0,0,1,17.05,44.932ZM24.574,47h2.684V42.138a3.278,3.278,0,0,1,.418-1.848,1.83,1.83,0,0,1,1.65-.836,1.718,1.718,0,0,1,1.254.484,2.73,2.73,0,0,1,.506,1.87V47H33.77V41.016a4.013,4.013,0,0,0-.748-2.684,3.642,3.642,0,0,0-2.816-1.166,3.5,3.5,0,0,0-2.948,1.54V37.474H24.574Zm16.28-7.238V37.474H39.006V34.218H36.322v3.256H35.266v2.288h1.056V47h2.684V39.762ZM42.262,47h2.684V42.424a3.273,3.273,0,0,1,.528-2.112,2.193,2.193,0,0,1,1.782-.77,2.018,2.018,0,0,1,1.254.352l.352-2.508a3.3,3.3,0,0,0-1.144-.22,2.919,2.919,0,0,0-1.584.418,3.213,3.213,0,0,0-1.188,1.32v-1.43H42.262Zm12.672-9.834a5.482,5.482,0,0,0-3.85,1.342,5.132,5.132,0,0,0,0,7.458,6.194,6.194,0,0,0,7.7,0,5.132,5.132,0,0,0,0-7.458A5.482,5.482,0,0,0,54.934,37.166Zm0,7.766a2.7,2.7,0,1,1,2.684-2.684A2.653,2.653,0,0,1,54.934,44.932Zm7.524-13.97V47h2.684V30.962ZM75,38.706a3.45,3.45,0,0,0-3.058-1.54,4.764,4.764,0,0,0-4.73,5.06,4.834,4.834,0,0,0,4.862,5.082A3.417,3.417,0,0,0,75,45.768V47h2.684V37.474H75Zm-2.376.836a2.7,2.7,0,1,1-2.64,2.684A2.59,2.59,0,0,1,72.622,39.542ZM93.676,34.79V32.326h-9.46V34.79h3.3V47h2.86V34.79Zm8.118,6.6L104.3,47h1.32l4.84-9.526H107.47l-2.508,5.5-2.552-5.5h-1.232l-2.552,5.5-2.508-5.5H93.126L97.966,47h1.32Zm14.718-4.224a5.482,5.482,0,0,0-3.85,1.342,5.132,5.132,0,0,0,0,7.458,6.194,6.194,0,0,0,7.7,0,5.132,5.132,0,0,0,0-7.458A5.482,5.482,0,0,0,116.512,37.166Zm0,7.766a2.7,2.7,0,1,1,2.684-2.684A2.653,2.653,0,0,1,116.512,44.932Zm7.524-7.458V47h2.684V37.474Zm-.264-4.026a1.606,1.606,0,1,0,1.606-1.606A1.615,1.615,0,0,0,123.772,33.448Zm12.672,4.29a5.683,5.683,0,0,0-2.574-.572,4.91,4.91,0,0,0-5.082,5.1,4.891,4.891,0,0,0,1.518,3.652,5.377,5.377,0,0,0,3.674,1.386,5.44,5.44,0,0,0,2.464-.594V44.1a3.108,3.108,0,0,1-2.112.836,2.653,2.653,0,0,1-2.772-2.706,2.56,2.56,0,0,1,2.684-2.684,3.1,3.1,0,0,1,2.2.836ZM138.468,47h2.684V42.138a3.278,3.278,0,0,1,.418-1.848,1.83,1.83,0,0,1,1.65-.836,1.718,1.718,0,0,1,1.254.484,2.73,2.73,0,0,1,.506,1.87V47h2.684V41.016a4.013,4.013,0,0,0-.748-2.684,3.642,3.642,0,0,0-2.816-1.166,3.5,3.5,0,0,0-2.948,1.54V30.962h-2.684Zm16.874-16.038V47h2.684V43.194l.286-.264L161.854,47h3.564L160.6,41.654l4.466-4.18H161.59l-3.564,3.476V30.962Zm15.774,6.2a5.482,5.482,0,0,0-3.85,1.342,5.132,5.132,0,0,0,0,7.458,6.194,6.194,0,0,0,7.7,0,5.132,5.132,0,0,0,0-7.458A5.482,5.482,0,0,0,171.116,37.166Zm0,7.766a2.7,2.7,0,1,1,2.684-2.684A2.653,2.653,0,0,1,171.116,44.932Zm13.574-6.754a4.751,4.751,0,0,0-3.036-1.012,3.931,3.931,0,0,0-2.486.682,2.83,2.83,0,0,0-.99,2.156,2.556,2.556,0,0,0,.726,1.826,5.14,5.14,0,0,0,2.046,1.144l.616.22a1.062,1.062,0,0,1,.836.968c0,.66-.572,1.034-1.32,1.034a2.953,2.953,0,0,1-2.112-1.1l-1.408,1.628a4.814,4.814,0,0,0,3.7,1.584,4,4,0,0,0,2.86-1.012,3.166,3.166,0,0,0,1.056-2.42,2.762,2.762,0,0,0-.484-1.584,4.88,4.88,0,0,0-2.42-1.364l-.638-.2c-.748-.242-.858-.616-.858-.858,0-.462.4-.77,1.034-.77a2.228,2.228,0,0,1,1.562.638Zm11.484-.7H186.89v2.288h4.576L186.054,47H195.8V44.712h-5.038Zm6.534,2.288V37.474H200.86V34.218h-2.684v3.256H197.12v2.288h1.056V47h2.684V39.762Zm6.38-2.6a5.482,5.482,0,0,0-3.85,1.342,5.132,5.132,0,0,0,0,7.458,6.194,6.194,0,0,0,7.7,0,5.132,5.132,0,0,0,0-7.458A5.482,5.482,0,0,0,209.088,37.166Zm0,7.766a2.7,2.7,0,1,1,2.684-2.684A2.653,2.653,0,0,1,209.088,44.932ZM210.276,31.6l-2.6,3.3,1.232.88,3.3-2.948Zm13.31,9.79L226.094,47h1.32l4.84-9.526h-2.992l-2.508,5.5-2.552-5.5H222.97l-2.552,5.5-2.508-5.5h-2.992L219.758,47h1.32Z" transform="translate(600 1607)"/>
  </g>
</svg>
